<?xml version="1.0" encoding="UTF-8"?>
<svg version="1.1" xmlns="http://www.w3.org/2000/svg" width="2000" height="390">
<path d="M0 0 C1.70051726 -0.00271848 3.40103334 -0.00628417 5.10154724 -0.01062012 C9.66974022 -0.01964459 14.23784166 -0.01624145 18.806036 -0.00986195 C23.61780392 -0.0047499 28.42956473 -0.00950771 33.24133301 -0.01263428 C41.31731555 -0.0162589 49.39326134 -0.01151451 57.46923828 -0.00195312 C66.76691715 0.0089285 76.06450826 0.00540185 85.362185 -0.00560594 C93.38732729 -0.01472188 101.41244337 -0.01594314 109.43758917 -0.0107286 C114.21211527 -0.00763246 118.9866003 -0.00713394 123.76112366 -0.01380157 C128.2527121 -0.01963751 132.7441889 -0.01546562 137.23576546 -0.00401306 C138.87063984 -0.00139952 140.50552384 -0.00207386 142.14039421 -0.00653839 C155.9932393 -0.04084025 169.85593739 0.62802112 183.18554688 4.75878906 C184.01393066 5.01378174 184.84231445 5.26877441 185.69580078 5.53149414 C200.96323351 10.50648665 214.38861854 18.65438581 226.37304688 29.25878906 C227.200625 29.98582031 228.02820313 30.71285156 228.88085938 31.46191406 C248.02245933 49.46969103 260.38880573 76.47983942 261.64979172 102.66290283 C261.79454608 107.46821628 261.77949096 112.27215233 261.76123047 117.07910156 C261.765307 118.90769766 261.77065489 120.7362913 261.77716064 122.56488037 C261.79071156 127.48226845 261.7855867 132.39946543 261.77602339 137.31685638 C261.7683628 142.49298064 261.77549 147.66908986 261.78018188 152.84521484 C261.78562096 161.53323263 261.77849657 170.2211736 261.76416016 178.90917969 C261.74783725 188.91580169 261.75312707 198.92224024 261.76963937 208.9288578 C261.78330714 217.56122201 261.78514816 226.19353139 261.77732337 234.82590294 C261.77267581 239.96373877 261.77194081 245.10148873 261.78193283 250.23931885 C261.7906777 255.07239507 261.7844451 259.90523758 261.76725006 264.73828888 C261.763325 266.49894068 261.76434978 268.25961257 261.77103806 270.02025604 C261.87303177 299.62704544 252.98076223 325.87848953 233.37304688 348.25878906 C232.65632813 349.07734375 231.93960937 349.89589844 231.20117188 350.73925781 C211.12069344 372.06532984 182.16452929 383.46083474 153.18107605 384.4451828 C148.73339226 384.53915228 144.28631919 384.52979957 139.83789062 384.51757812 C138.14722545 384.52029667 136.45656146 384.5238624 134.76589966 384.52819824 C130.22456514 384.53722193 125.68332273 384.5338199 121.14198685 384.52744007 C116.35824612 384.52232761 111.57451256 384.52708595 106.79077148 384.5302124 C98.76186731 384.53383691 90.7330001 384.52909295 82.70410156 384.51953125 C73.46095409 384.50864965 64.2178949 384.5121763 54.97474957 384.52318406 C46.99631598 384.53230035 39.01790875 384.5335211 31.03947163 384.52830672 C26.29289112 384.52521077 21.54635192 384.52471153 16.79977417 384.5313797 C12.33445032 384.53721614 7.86923875 384.53304286 3.40392685 384.52159119 C1.77872783 384.51897791 0.15351912 384.51965152 -1.47167587 384.52411652 C-31.53260551 384.59900248 -59.1415375 377.7896158 -82.62695312 358.25878906 C-83.4184375 357.61425781 -84.20992187 356.96972656 -85.02539062 356.30566406 C-106.67311022 337.86754327 -119.19549666 310.95236378 -121.85489845 282.85005569 C-122.19345424 277.31222529 -122.17330331 271.77731091 -122.14453125 266.23144531 C-122.14997229 264.42845093 -122.15710589 262.62546101 -122.16577148 260.82247925 C-122.18377262 255.99178213 -122.17703494 251.16143246 -122.16425514 246.33073044 C-122.15400538 241.23390637 -122.16355358 236.13710866 -122.1697998 231.0402832 C-122.17704181 222.48708856 -122.16757972 213.93403284 -122.1484375 205.38085938 C-122.1266755 195.544594 -122.13372933 185.70866049 -122.15574312 175.87240314 C-122.1739961 167.37066754 -122.17640744 158.86903082 -122.16598845 150.36728191 C-122.15980753 145.3143083 -122.1587666 140.26148976 -122.1721344 135.20852661 C-122.18383775 130.45411052 -122.17540811 125.70011503 -122.15255737 120.94574356 C-122.14734651 119.2190228 -122.14864985 117.49226554 -122.15760803 115.76556015 C-122.29110839 87.3778466 -114.4362324 60.88767567 -95.62695312 39.25878906 C-94.56154297 37.99421875 -94.56154297 37.99421875 -93.47460938 36.70410156 C-69.50977113 8.99080883 -35.33120809 -0.09648299 0 0 Z M26.37304688 114.25878906 C25.44363281 115.05285156 24.51421875 115.84691406 23.55664062 116.66503906 C17.07152191 122.3654494 11.68577433 128.47322627 6.37304688 135.25878906 C5.44100093 136.39394753 4.50595744 137.52664961 3.56835938 138.65722656 C-23.31950327 171.26168453 -45.22891633 210.84534689 -41.06787109 254.38867188 C-40.98424316 255.19143555 -40.90061523 255.99419922 -40.81445312 256.82128906 C-40.72824707 257.67174805 -40.64204102 258.52220703 -40.55322266 259.3984375 C-39.65721527 267.76220838 -38.23064238 276.00513506 -36.62695312 284.25878906 C-33.99530669 281.11426584 -32.2537303 277.702806 -30.41870117 274.06665039 C-20.34511914 254.12956103 -7.34212551 236.6617051 7.68554688 220.19628906 C8.14058594 219.69637451 8.595625 219.19645996 9.06445312 218.68139648 C12.27673713 215.2366142 15.72617394 212.1518617 19.29174805 209.07739258 C22.73964313 206.0646805 26.04940336 202.90716232 29.37304688 199.75878906 C36.77695119 192.74532501 44.41946422 186.05362288 52.18554688 179.44628906 C56.46251994 175.80408125 60.64699229 172.10004834 64.74804688 168.25878906 C69.25670266 164.12024681 73.98862873 160.37463753 78.87304688 156.69628906 C79.56833496 156.17099609 80.26362305 155.64570313 80.97998047 155.10449219 C86.95910293 150.66680484 91.8534623 149.23067416 99.37304688 150.25878906 C102.56054688 152.25878906 102.56054688 152.25878906 104.37304688 155.25878906 C104.6558154 161.00841571 103.16293979 164.65028055 99.54882812 169.07519531 C95.74168877 172.89600482 91.43889363 176.08267772 87.15429688 179.34082031 C83.44887645 182.16839088 79.89708888 185.14701935 76.37304688 188.19628906 C75.79619141 188.69483398 75.21933594 189.19337891 74.625 189.70703125 C73.45700044 190.71812563 72.28968224 191.73000764 71.12304688 192.74267578 C68.79738452 194.7575144 66.46087318 196.75951206 64.12329102 198.76049805 C62.95512071 199.76050658 61.78764127 200.7613227 60.62084961 201.76293945 C57.72526684 204.24849963 54.82362196 206.72620181 51.90820312 209.18847656 C43.14007342 216.6116497 34.6692856 224.31164949 26.37304688 232.25878906 C25.81810547 232.79036621 25.26316406 233.32194336 24.69140625 233.86962891 C17.71629255 240.59382406 11.34624919 247.61815572 5.37304688 255.25878906 C4.5609375 256.25394531 3.74882812 257.24910156 2.91210938 258.27441406 C-5.53105962 268.73065344 -21.62695312 289.41053256 -21.62695312 303.25878906 C36.23973097 304.77836667 93.8146602 289.26773794 137.09960938 249.34472656 C139.21198928 247.40656356 141.37302759 245.54855635 143.56054688 243.69628906 C183.17294151 209.09973238 207.67634889 145.30895317 211.63427734 93.86328125 C212.03867494 86.99918976 212.26620248 80.13367348 212.37304688 73.25878906 C210.14458278 72.94131769 207.91522041 72.63015183 205.68554688 72.32128906 C204.44417969 72.14726563 203.2028125 71.97324219 201.92382812 71.79394531 C141.50805641 64.28246006 73.69997392 73.51824928 26.37304688 114.25878906 Z M85.74804688 161.13378906 C85.22807129 161.54435547 84.7080957 161.95492187 84.17236328 162.37792969 C82.56051007 163.65725577 80.96664022 164.95682725 79.37304688 166.25878906 C78.42429687 167.01417969 77.47554688 167.76957031 76.49804688 168.54785156 C71.07108624 172.91100458 65.84541042 177.46193528 60.69726562 182.14941406 C58.65262353 184.00505563 56.58520538 185.82635283 54.49804688 187.63378906 C50.5784312 191.04764787 46.75137283 194.55977659 42.92724609 198.07958984 C39.84680047 200.91352278 36.74636289 203.72199194 33.62304688 206.50878906 C-6.14820202 242.31570125 -35.91132999 284.26444088 -44.62695312 338.25878906 C-44.62695312 339.24878906 -44.62695312 340.23878906 -44.62695312 341.25878906 C-42.64695312 341.25878906 -40.66695313 341.25878906 -38.62695312 341.25878906 C-37.4509571 337.26150678 -36.36448347 333.25717605 -35.36523438 329.21191406 C-23.95881579 283.30410215 -0.93303997 244.92660417 35.18164062 214.16503906 C38.13832597 211.59309174 41.00146231 208.92499849 43.87304688 206.25878906 C48.63938513 201.84376135 53.43767741 197.48521043 58.37304688 193.25878906 C59.74783203 192.06576172 59.74783203 192.06576172 61.15039062 190.84863281 C68.03140854 184.91829616 75.10972842 179.30637478 82.37280273 173.85009766 C85.7409133 171.31231017 89.07304693 168.74076639 92.32226562 166.05175781 C93.17050903 165.35022583 93.17050903 165.35022583 94.03588867 164.63452148 C95.92144173 162.69457416 96.29478826 160.91958206 96.37304688 158.25878906 C91.4730053 156.56604743 89.66215673 158.00039114 85.74804688 161.13378906 Z " fill="#0073D8" transform="translate(141.626953125,2.7412109375)"/>
<path d="M0 0 C10.24985765 9.33376582 15.99556672 22.77206786 16.84118652 36.54974365 C17.05628357 43.17402685 16.96579387 49.79601103 16.87890625 56.421875 C16.86382693 58.43423474 16.85014429 60.44660545 16.83789062 62.45898438 C16.80515452 67.34272349 16.75355287 72.22592523 16.69140625 77.109375 C14.41563157 78.24726234 13.18107201 78.23279563 10.6545105 78.22962952 C9.3882634 78.23169151 9.3882634 78.23169151 8.09643555 78.23379517 C7.16855225 78.23019989 6.24066895 78.22660461 5.28466797 78.22290039 C3.82119431 78.22311943 3.82119431 78.22311943 2.32815552 78.2233429 C-0.90755409 78.22264435 -4.14320665 78.21485466 -7.37890625 78.20703125 C-9.61807219 78.20516686 -11.85723854 78.20374306 -14.09640503 78.20274353 C-19.99832276 78.19891998 -25.90021599 78.18909107 -31.80212402 78.17803955 C-37.82120431 78.16782194 -43.84028855 78.16324516 -49.859375 78.15820312 C-61.67579203 78.14746867 -73.49219086 78.13039418 -85.30859375 78.109375 C-85.17353151 80.97171354 -85.03196646 83.83348745 -84.88671875 86.6953125 C-84.84949707 87.49831787 -84.81227539 88.30132324 -84.77392578 89.12866211 C-84.16944133 100.76202466 -81.84905622 110.44299292 -73.55859375 118.921875 C-63.3552094 125.78953754 -49.97047491 126.41934434 -38.12109375 124.359375 C-32.05240245 122.97004027 -27.112994 121.15119634 -22.93359375 116.421875 C-21.21288472 112.91427581 -20.42978915 109.79665719 -19.80078125 105.96484375 C-19.63835937 105.35253906 -19.4759375 104.74023438 -19.30859375 104.109375 C-15.07944531 101.99480078 -9.52959569 102.92351672 -4.87744141 102.92407227 C-2.81652248 102.92188342 -0.75613685 102.90371517 1.3046875 102.88476562 C2.59761719 102.88283203 3.89054687 102.88089844 5.22265625 102.87890625 C6.41439453 102.87479736 7.60613281 102.87068848 8.83398438 102.86645508 C11.69140625 103.109375 11.69140625 103.109375 13.69140625 105.109375 C15.55121763 113.6335105 14.28424182 122.49159546 9.99609375 130.14453125 C1.53160496 142.89195 -11.0773821 149.50756802 -25.8347168 152.64672852 C-33.94851568 154.16946351 -41.87935313 154.45792674 -50.12109375 154.421875 C-51.11130524 154.41914078 -51.11130524 154.41914078 -52.121521 154.41635132 C-72.22635037 154.3228589 -90.11225097 150.37510251 -105.43359375 136.609375 C-121.11389754 120.0840249 -119.80648409 96.93922269 -119.69970703 75.77416992 C-119.68263264 72.36091867 -119.69275676 68.94837 -119.7100296 65.5351429 C-119.90262721 20.71664254 -119.90262721 20.71664254 -104.30859375 3.109375 C-103.83292969 2.50609375 -103.35726563 1.9028125 -102.8671875 1.28125 C-79.64590253 -25.63846417 -24.92551752 -20.41277577 0 0 Z M-78.30859375 24.109375 C-84.72000739 32.90871311 -85.30859375 41.42700809 -85.30859375 52.109375 C-62.53859375 52.109375 -39.76859375 52.109375 -16.30859375 52.109375 C-16.30859375 40.86389924 -17.25471346 29.63598305 -25.30859375 21.109375 C-34.75773183 13.00761402 -45.35453627 12.27388109 -57.28320312 12.91845703 C-65.80595403 13.72183109 -72.74546787 17.71178024 -78.30859375 24.109375 Z " fill="#0073D6" transform="translate(1651.30859375,152.890625)"/>
<path d="M0 0 C10.24985765 9.33376582 15.99556672 22.77206786 16.84118652 36.54974365 C17.05628357 43.17402685 16.96579387 49.79601103 16.87890625 56.421875 C16.86382693 58.43423474 16.85014429 60.44660545 16.83789062 62.45898438 C16.80515452 67.34272349 16.75355287 72.22592523 16.69140625 77.109375 C14.41563157 78.24726234 13.18107201 78.23279563 10.6545105 78.22962952 C9.3882634 78.23169151 9.3882634 78.23169151 8.09643555 78.23379517 C7.16855225 78.23019989 6.24066895 78.22660461 5.28466797 78.22290039 C3.82119431 78.22311943 3.82119431 78.22311943 2.32815552 78.2233429 C-0.90755409 78.22264435 -4.14320665 78.21485466 -7.37890625 78.20703125 C-9.61807219 78.20516686 -11.85723854 78.20374306 -14.09640503 78.20274353 C-19.99832276 78.19891998 -25.90021599 78.18909107 -31.80212402 78.17803955 C-37.82120431 78.16782194 -43.84028855 78.16324516 -49.859375 78.15820312 C-61.67579203 78.14746867 -73.49219086 78.13039418 -85.30859375 78.109375 C-85.17353151 80.97171354 -85.03196646 83.83348745 -84.88671875 86.6953125 C-84.84949707 87.49831787 -84.81227539 88.30132324 -84.77392578 89.12866211 C-84.16944133 100.76202466 -81.84905622 110.44299292 -73.55859375 118.921875 C-63.3552094 125.78953754 -49.97047491 126.41934434 -38.12109375 124.359375 C-32.05240245 122.97004027 -27.112994 121.15119634 -22.93359375 116.421875 C-21.20814532 112.90461474 -20.47236448 109.81466854 -19.8984375 105.96484375 C-19.70378906 105.35253906 -19.50914062 104.74023438 -19.30859375 104.109375 C-13.86148822 102.29367316 -8.00896616 102.79670512 -2.30859375 102.734375 C-1.01179687 102.69699219 0.285 102.65960938 1.62109375 102.62109375 C2.86117187 102.60949219 4.10125 102.59789062 5.37890625 102.5859375 C6.51714844 102.56611816 7.65539062 102.54629883 8.828125 102.52587891 C11.69140625 103.109375 11.69140625 103.109375 13.57250977 105.46948242 C16.21984913 111.71553972 14.27133641 119.19539469 12.00390625 125.359375 C6.41789311 137.82815432 -3.03218715 144.86122572 -15.5625 149.8203125 C-38.28757306 157.64020208 -67.60740241 157.38883249 -89.59765625 147.484375 C-101.4928457 141.45108006 -110.56631454 133.14191556 -115.53515625 120.49438477 C-120.25619951 105.93634448 -119.77607469 90.91155577 -119.69970703 75.77416992 C-119.68263264 72.36091867 -119.69275676 68.94837 -119.7100296 65.5351429 C-119.90262721 20.71664254 -119.90262721 20.71664254 -104.30859375 3.109375 C-103.83292969 2.50609375 -103.35726562 1.9028125 -102.8671875 1.28125 C-79.64590253 -25.63846417 -24.92551752 -20.41277577 0 0 Z M-78.30859375 24.109375 C-84.72000739 32.90871311 -85.30859375 41.42700809 -85.30859375 52.109375 C-62.53859375 52.109375 -39.76859375 52.109375 -16.30859375 52.109375 C-16.30859375 40.64621276 -17.1998446 29.85272191 -25.30859375 21.109375 C-34.74563637 13.00050875 -45.36282285 12.27432886 -57.28320312 12.91845703 C-65.80595403 13.72183109 -72.74546787 17.71178024 -78.30859375 24.109375 Z " fill="#0073D6" transform="translate(1010.30859375,152.890625)"/>
<path d="M0 0 C12.00211293 11.43444543 16.60931437 24.62645378 17.10335732 41.05721283 C17.1874996 45.8078022 17.20345368 50.55736373 17.2109375 55.30859375 C17.225286 57.38497913 17.24104975 59.46135517 17.25814819 61.53771973 C17.2997246 66.97046039 17.32489338 72.40314309 17.34564209 77.83599854 C17.38163575 86.52806639 17.4430348 95.21999027 17.50413132 103.91191101 C17.52297132 106.92162057 17.53487809 109.93129185 17.54556274 112.94104004 C17.58879476 121.89135337 17.73142997 130.75897309 18.51693726 139.67980957 C18.88178587 144.66755895 18.81675462 149.65464653 18.734375 154.65234375 C14.64098848 154.7017349 10.54771702 154.73805876 6.45410156 154.76220703 C5.06116719 154.77227252 3.66825398 154.78592609 2.27539062 154.80322266 C0.2748314 154.82744595 -1.72588115 154.83775189 -3.7265625 154.84765625 C-4.93103027 154.85812988 -6.13549805 154.86860352 -7.37646484 154.87939453 C-10.265625 154.65234375 -10.265625 154.65234375 -12.265625 152.65234375 C-12.76806641 150.58935547 -12.76806641 150.58935547 -13.1171875 148.08203125 C-13.24609375 147.18613281 -13.375 146.29023438 -13.5078125 145.3671875 C-13.63414063 144.43003906 -13.76046875 143.49289062 -13.890625 142.52734375 C-14.09171875 141.11001953 -14.09171875 141.11001953 -14.296875 139.6640625 C-14.6272606 137.3277643 -14.9498425 134.99065304 -15.265625 132.65234375 C-16.52400873 133.57949404 -17.7800579 134.50981331 -19.03515625 135.44140625 C-19.73487549 135.95912598 -20.43459473 136.4768457 -21.15551758 137.01025391 C-23.19061003 138.59396695 -25.07250839 140.26475408 -26.953125 142.02734375 C-42.85121795 156.08624555 -59.74293009 159.82037234 -80.265625 158.65234375 C-89.60217665 157.31531329 -97.37049715 152.5704794 -103.078125 145.08984375 C-108.38151561 136.91942294 -110.85024155 127.33258423 -111.265625 117.65234375 C-111.30558594 116.96140625 -111.34554688 116.27046875 -111.38671875 115.55859375 C-111.79012882 102.45963133 -109.06001334 89.09454504 -100.640625 78.77734375 C-96.15440653 74.12278688 -91.12272492 71.28884995 -85.265625 68.65234375 C-84.05519531 68.10126953 -84.05519531 68.10126953 -82.8203125 67.5390625 C-62.32830257 59.22020581 -39.03524053 59.15060146 -17.265625 57.65234375 C-17.34756722 54.17228927 -17.46030549 50.69385374 -17.578125 47.21484375 C-17.60068359 46.24095703 -17.62324219 45.26707031 -17.64648438 44.26367188 C-17.92417165 36.71562678 -18.75901633 29.85523261 -23.515625 23.77734375 C-31.27307236 17.78295261 -39.95990078 17.10694343 -49.5625 17.9375 C-56.07969209 18.90210928 -61.41687442 20.12916467 -66.453125 24.58984375 C-68.32210792 27.74778042 -69.03112772 30.29263261 -69.87890625 33.84375 C-70.14098877 34.92986572 -70.40307129 36.01598145 -70.6730957 37.13500977 C-70.96639771 38.38109009 -70.96639771 38.38109009 -71.265625 39.65234375 C-75.64386417 39.70172524 -80.02195646 39.73805415 -84.40039062 39.76220703 C-85.8903282 39.77227418 -87.38024597 39.78592893 -88.87011719 39.80322266 C-91.00981528 39.82744028 -93.14925253 39.83881939 -95.2890625 39.84765625 C-96.57731934 39.85812988 -97.86557617 39.86860352 -99.19287109 39.87939453 C-102.265625 39.65234375 -102.265625 39.65234375 -104.265625 37.65234375 C-105.39362479 27.27736891 -104.52895158 17.62621073 -98.34765625 8.96484375 C-87.51379894 -3.9207352 -71.53631319 -9.60648431 -55.09375 -11.1875 C-36.76349151 -12.2255395 -14.82590646 -12.44995991 0 0 Z M-41.703125 82.90234375 C-42.84072266 83.01191406 -43.97832031 83.12148437 -45.15039062 83.234375 C-55.30593141 84.33508963 -65.96765283 85.9801166 -73.265625 93.65234375 C-78.40693097 100.92108668 -77.76127226 109.08866058 -77.265625 117.65234375 C-76.15009168 123.37181543 -72.8608902 126.39736424 -68.265625 129.65234375 C-59.85213842 132.45683928 -52.07513972 130.24897822 -44.265625 126.65234375 C-37.60177121 123.31534543 -32.20297831 119.09087701 -26.78515625 113.99609375 C-24.265625 111.65234375 -24.265625 111.65234375 -22.4230957 110.47021484 C-19.22603756 108.27524384 -17.50476076 106.81950179 -16.70678711 102.92480469 C-16.57663617 99.68198317 -16.65445661 96.51788147 -16.828125 93.27734375 C-16.85970703 92.15972656 -16.89128906 91.04210937 -16.92382812 89.890625 C-17.00605739 87.14181803 -17.12090883 84.39845239 -17.265625 81.65234375 C-25.49581175 81.46531767 -33.5242985 82.00641357 -41.703125 82.90234375 Z " fill="#0073D6" transform="translate(1811.265625,148.34765625)"/>
<path d="M0 0 C12.59202088 13.2932007 12.75301422 31.25922082 12.75390625 48.37109375 C12.76571756 50.36956224 12.77909072 52.36802204 12.79393005 54.36647034 C12.82996265 59.6175977 12.85024828 64.86864831 12.86547852 70.11987305 C12.8933152 79.45372672 12.94076085 88.78741536 13.00390625 98.12109375 C13.00994495 99.11704937 13.01598366 100.11300499 13.02220535 101.13914108 C13.12793899 116.78262358 13.76808939 132.2757834 15.24937439 147.85414124 C15.27020584 148.52102463 15.29103729 149.18790802 15.3125 149.875 C12.69224949 152.49525051 5.51508948 151.10509796 1.95678711 151.11523438 C-0.11320099 151.12494465 -2.18219815 151.15595712 -4.25195312 151.1875 C-5.54939453 151.19265625 -6.84683594 151.1978125 -8.18359375 151.203125 C-9.38169678 151.2124707 -10.5797998 151.22181641 -11.81420898 151.23144531 C-12.76239502 151.11381836 -13.71058105 150.99619141 -14.6875 150.875 C-16.67045332 147.90057001 -17.06021607 146.62425353 -17.5390625 143.20703125 C-17.73242188 141.86801758 -17.73242188 141.86801758 -17.9296875 140.50195312 C-18.05601562 139.57318359 -18.18234375 138.64441406 -18.3125 137.6875 C-18.51359375 136.27694336 -18.51359375 136.27694336 -18.71875 134.83789062 C-19.0485088 132.51780192 -19.37114451 130.19694786 -19.6875 127.875 C-20.12247803 128.32230469 -20.55745605 128.76960937 -21.00561523 129.23046875 C-35.83709004 144.30093415 -53.00201854 155.01350966 -74.625 155.3125 C-86.60819574 155.21293504 -95.67831545 153.10522511 -104.4921875 144.50390625 C-115.97295919 130.75558 -115.80588685 113.84244447 -114.6875 96.875 C-113.36883141 86.53092624 -108.05044605 77.11270644 -99.9375 70.5625 C-83.72829415 59.61282774 -63.76931298 57.19665545 -44.75 55.5625 C-42.94322681 55.3939935 -41.13658464 55.22407616 -39.33007812 55.05273438 C-26.69310471 53.875 -26.69310471 53.875 -21.6875 53.875 C-21.74009179 50.248887 -21.83532397 46.62502788 -21.9375 43 C-21.95167969 41.98679688 -21.96585938 40.97359375 -21.98046875 39.9296875 C-22.23545921 31.97398519 -23.40345343 24.33189113 -29.0625 18.375 C-38.34167514 13.0726142 -49.6992284 13.05143421 -59.953125 15.0859375 C-65.40861163 16.66023507 -69.34544112 18.90664698 -72.5625 23.625 C-73.48839233 26.29980007 -74.1614214 28.82169553 -74.7578125 31.578125 C-74.93328613 32.38411133 -75.10875977 33.19009766 -75.28955078 34.02050781 C-75.42087402 34.63249023 -75.55219727 35.24447266 -75.6875 35.875 C-80.06571909 35.9490719 -84.44360782 36.00356375 -88.82226562 36.03979492 C-90.31223909 36.054896 -91.80216801 36.07537858 -93.29199219 36.10131836 C-95.4317523 36.13764584 -97.57092566 36.15471221 -99.7109375 36.16796875 C-100.99919434 36.1836792 -102.28745117 36.19938965 -103.61474609 36.21557617 C-104.62875488 36.10318604 -105.64276367 35.9907959 -106.6875 35.875 C-110.29993534 30.45634699 -109.2625815 23.33515425 -108.22265625 17.078125 C-105.51564513 6.76265066 -98.62889811 -0.63798297 -89.5859375 -5.9453125 C-81.81021157 -10.06593001 -74.42598584 -12.66858569 -65.6875 -14.125 C-64.60855469 -14.32029297 -64.60855469 -14.32029297 -63.5078125 -14.51953125 C-41.54083974 -17.72482883 -16.97395033 -15.23208207 0 0 Z M-45.75 79.1875 C-46.85666016 79.30544922 -47.96332031 79.42339844 -49.10351562 79.54492188 C-58.8397622 80.66634425 -69.0207571 82.27062332 -76.6875 88.875 C-82.47025814 96.33391992 -82.41786263 104.80633063 -81.6875 113.875 C-80.16376004 119.2909018 -77.45837369 122.81674763 -72.6875 125.875 C-64.16004756 128.71748415 -55.63290862 126.53068053 -47.6875 122.875 C-43.68712208 120.56182304 -40.01264853 118.00181598 -36.38574219 115.15673828 C-34.63275236 113.83367955 -32.82042096 112.65705166 -30.9765625 111.46484375 C-26.1465683 108.05922734 -22.29844916 105.02961251 -21.12890625 98.99072266 C-20.57199709 91.92547315 -20.96587829 84.9152951 -21.6875 77.875 C-29.80585529 77.68260261 -37.68994435 78.24064367 -45.75 79.1875 Z " fill="#0073D6" transform="translate(758.6875,152.125)"/>
<path d="M0 0 C10.28051639 9.45944354 14.9664806 22.16560173 15.76167297 35.93844986 C16.03308714 44.32954771 15.96722554 52.72300764 15.92578125 61.1171875 C15.92114641 63.83005254 15.92074659 66.54291456 15.92010498 69.25578308 C15.9164353 74.9115451 15.90157144 80.56718404 15.87890625 86.22290039 C15.84984824 93.48875594 15.83966233 100.75451368 15.83522415 108.02042103 C15.83125361 114.27920726 15.81876682 120.53797217 15.80487728 126.79674315 C15.80077761 128.80647403 15.79785282 130.81620416 15.79508209 132.82593727 C15.78825038 136.55302491 15.77463746 140.28002128 15.75878906 144.00708008 C15.7576712 145.12228027 15.75655334 146.23748047 15.75540161 147.38647461 C15.74969147 148.39414383 15.74398132 149.40181305 15.73809814 150.4400177 C15.73512348 151.3205824 15.73214882 152.2011471 15.72908401 153.10839558 C15.59765625 155.09765625 15.59765625 155.09765625 14.59765625 156.09765625 C12.22197105 156.18605295 9.87556951 156.2129593 7.5 156.1953125 C6.43671227 156.19319008 6.43671227 156.19319008 5.35194397 156.19102478 C3.07963913 156.18541068 0.8074315 156.17285588 -1.46484375 156.16015625 C-3.00195171 156.15514306 -4.5390612 156.15057984 -6.07617188 156.14648438 C-9.85160017 156.13543667 -13.62695546 156.11816266 -17.40234375 156.09765625 C-18.59891542 153.70451292 -18.52961389 152.23049185 -18.53364563 149.55859375 C-18.53765381 148.6026683 -18.54166199 147.64674286 -18.54579163 146.66184998 C-18.54526291 145.60941605 -18.54473419 144.55698212 -18.54418945 143.47265625 C-18.54766388 142.36676651 -18.55113831 141.26087677 -18.55471802 140.12147522 C-18.56208552 137.71242783 -18.56742558 135.30337361 -18.57100868 132.89431763 C-18.57816335 129.07719398 -18.59382439 125.26019969 -18.61235046 121.44311523 C-18.66485385 110.58725376 -18.71319475 99.73147262 -18.72827148 88.87548828 C-18.73758148 82.24001966 -18.76775717 75.60483788 -18.80959129 68.96948242 C-18.82188125 66.44346557 -18.82702623 63.91740318 -18.82479286 61.39135742 C-18.82243094 57.84649545 -18.84467784 54.30255027 -18.87231445 50.7578125 C-18.86571304 49.72157242 -18.85911163 48.68533234 -18.85231018 47.61769104 C-18.95555852 39.51457299 -20.70207918 32.72372582 -25.58984375 26.16015625 C-32.44955166 21.12970378 -40.07127215 20.146166 -48.40234375 21.09765625 C-57.73515645 22.86300544 -65.82317418 26.83755316 -73.32672119 32.59977722 C-75.40234375 34.09765625 -75.40234375 34.09765625 -78.34857178 35.6723175 C-82.91680562 38.55739993 -86.57102897 41.14742712 -88.08984184 46.53749847 C-89.19607443 54.08513909 -88.89975313 61.71538217 -88.7578125 69.3203125 C-88.7553278 71.79227235 -88.75828349 74.26424313 -88.76643372 76.7361908 C-88.77392986 83.2189811 -88.71072145 89.69915956 -88.6315918 96.18139648 C-88.56213242 102.8011594 -88.55484753 109.42093907 -88.54492188 116.04101562 C-88.53270673 123.46670527 -88.51459938 130.89175546 -88.44438171 138.31715393 C-88.43497055 139.44037552 -88.42555939 140.56359711 -88.41586304 141.72085571 C-88.3973485 143.82731654 -88.37484587 145.93374727 -88.34776306 148.04011536 C-88.33643341 149.4214566 -88.33643341 149.4214566 -88.32487488 150.83070374 C-88.31117497 152.03766702 -88.31117497 152.03766702 -88.2971983 153.2690134 C-88.40234375 155.09765625 -88.40234375 155.09765625 -89.40234375 156.09765625 C-91.76632843 156.19843745 -94.10045686 156.2373884 -96.46484375 156.23046875 C-97.17133057 156.23142548 -97.87781738 156.2323822 -98.60571289 156.23336792 C-100.10205168 156.23404958 -101.59839342 156.2321963 -103.09472656 156.22802734 C-105.39264532 156.22267882 -107.69036861 156.22797276 -109.98828125 156.234375 C-111.43880252 156.23371422 -112.88932366 156.23243305 -114.33984375 156.23046875 C-115.37733765 156.2335051 -115.37733765 156.2335051 -116.43579102 156.23660278 C-121.28739151 156.21260849 -121.28739151 156.21260849 -122.40234375 155.09765625 C-122.50855064 153.4062449 -122.54476313 151.7104043 -122.55383301 150.01568604 C-122.56217667 148.91401596 -122.57052032 147.81234589 -122.57911682 146.67729187 C-122.58330124 145.45766251 -122.58748566 144.23803314 -122.59179688 142.98144531 C-122.60452882 141.02176999 -122.61726087 139.06209467 -122.62999725 137.10241938 C-122.64277116 134.98769058 -122.65308029 132.87296222 -122.66270447 130.75821686 C-122.68291942 126.34387955 -122.71058087 121.92960832 -122.73937988 117.51531982 C-122.79956266 108.12612986 -122.85121417 98.73689914 -122.90234375 89.34765625 C-122.95749613 79.25225007 -123.0143653 69.1568643 -123.07989264 59.06151938 C-123.10802394 54.68550114 -123.13169989 50.30948943 -123.15181732 45.93342733 C-123.16207217 43.85509434 -123.17445977 41.77678665 -123.1877594 39.69847107 C-123.20385374 37.18045507 -123.21675595 34.66241541 -123.22557068 32.1443634 C-123.27545451 25.35555649 -123.59102961 18.64470019 -124.17728424 11.88047409 C-124.46241908 8.35483625 -124.53534589 4.88460125 -124.52734375 1.34765625 C-124.52992187 0.1771875 -124.5325 -0.99328125 -124.53515625 -2.19921875 C-124.40234375 -4.90234375 -124.40234375 -4.90234375 -123.40234375 -5.90234375 C-118.78370722 -6.18464604 -114.15357665 -6.13418386 -109.52734375 -6.15234375 C-107.56861328 -6.18328125 -107.56861328 -6.18328125 -105.5703125 -6.21484375 C-104.32121094 -6.22 -103.07210938 -6.22515625 -101.78515625 -6.23046875 C-100.05869873 -6.2444873 -100.05869873 -6.2444873 -98.29736328 -6.25878906 C-95.40234375 -5.90234375 -95.40234375 -5.90234375 -93.56274414 -4.65991211 C-92.16581291 -2.54408885 -91.80655279 -0.9607793 -91.453125 1.546875 C-91.32744141 2.39443359 -91.20175781 3.24199219 -91.07226562 4.11523438 C-90.8953418 5.4368457 -90.8953418 5.4368457 -90.71484375 6.78515625 C-90.58529297 7.67783203 -90.45574219 8.57050781 -90.32226562 9.49023438 C-90.00445464 11.69136969 -89.6982835 13.89349189 -89.40234375 16.09765625 C-88.77070312 15.48019531 -88.1390625 14.86273438 -87.48828125 14.2265625 C-65.01430467 -7.04923378 -27.55698343 -21.82154623 0 0 Z " fill="#0073D6" transform="translate(1190.40234375,146.90234375)"/>
<path d="M0 0 C2.61328125 1.984375 2.61328125 1.984375 3.61328125 3.984375 C3.88000941 7.62440611 3.84481843 11.27316099 3.86328125 14.921875 C3.88390625 15.93701172 3.90453125 16.95214844 3.92578125 17.99804688 C3.93351562 19.45887695 3.93351562 19.45887695 3.94140625 20.94921875 C3.95075195 21.8424585 3.96009766 22.73569824 3.96972656 23.65600586 C3.61328125 25.984375 3.61328125 25.984375 2.35546875 27.84692383 C0.61328125 28.984375 0.61328125 28.984375 -1.36035156 28.88183594 C-2.4639502 28.5536084 -2.4639502 28.5536084 -3.58984375 28.21875 C-4.40582031 27.98800781 -5.22179688 27.75726563 -6.0625 27.51953125 C-6.91199219 27.26042969 -7.76148438 27.00132813 -8.63671875 26.734375 C-22.78131163 22.60249238 -33.33505782 21.80930309 -47.19921875 27.046875 C-51.69329155 31.02733948 -54.01512959 35.50676061 -54.66075134 41.54898071 C-54.83031376 44.48989816 -54.94219791 47.42654591 -55.02734375 50.37109375 C-55.0648877 51.39247437 -55.10243164 52.41385498 -55.14111328 53.46618652 C-55.23194366 55.97207944 -55.31354556 58.47791473 -55.38671875 60.984375 C-54.80011978 60.98215439 -54.21352081 60.97993378 -53.60914612 60.97764587 C-47.52646491 60.9555929 -41.44379498 60.94046836 -35.36108398 60.92944336 C-33.08829284 60.92440175 -30.81550495 60.91756863 -28.54272461 60.90893555 C-25.28368324 60.89686239 -22.02468458 60.89114513 -18.765625 60.88671875 C-17.74271866 60.88155746 -16.71981232 60.87639618 -15.66590881 60.87107849 C-14.725009 60.87100296 -13.78410919 60.87092743 -12.81469727 60.87084961 C-11.98196793 60.868629 -11.14923859 60.86640839 -10.29127502 60.86412048 C-8.38671875 60.984375 -8.38671875 60.984375 -7.38671875 61.984375 C-7.28688817 63.97194528 -7.25591122 65.9630502 -7.25390625 67.953125 C-7.25261719 69.16355469 -7.25132813 70.37398438 -7.25 71.62109375 C-7.25386719 72.89597656 -7.25773437 74.17085938 -7.26171875 75.484375 C-7.25785156 76.75925781 -7.25398438 78.03414063 -7.25 79.34765625 C-7.25128906 80.55808594 -7.25257812 81.76851563 -7.25390625 83.015625 C-7.25503418 84.13517578 -7.25616211 85.25472656 -7.25732422 86.40820312 C-7.38671875 88.984375 -7.38671875 88.984375 -8.38671875 89.984375 C-9.86026223 90.07741518 -11.33822466 90.10183765 -12.81469727 90.09790039 C-13.75559708 90.09782486 -14.69649689 90.09774933 -15.66590881 90.09767151 C-16.68881516 90.09251022 -17.7117215 90.08734894 -18.765625 90.08203125 C-19.80742416 90.0806163 -20.84922333 90.07920135 -21.92259216 90.07774353 C-25.26482969 90.0721258 -28.60700132 90.0595703 -31.94921875 90.046875 C-34.20898341 90.04186228 -36.46874912 90.03729898 -38.72851562 90.03320312 C-44.28127266 90.02215061 -49.833991 90.00539524 -55.38671875 89.984375 C-55.38487516 90.65767035 -55.38303158 91.33096569 -55.38113213 92.02466393 C-55.337007 108.39029628 -55.30388849 124.75590984 -55.28309441 141.12158775 C-55.27277185 149.03583281 -55.25869289 156.95003821 -55.23583984 164.86425781 C-55.21593586 171.76046576 -55.20300944 178.65664501 -55.19854176 185.55288088 C-55.19592929 189.20603973 -55.18976868 192.85911642 -55.17525864 196.51224899 C-55.15921035 200.58551462 -55.15873713 204.65863648 -55.15966797 208.73193359 C-55.15247742 209.94968979 -55.14528687 211.16744598 -55.13787842 212.42210388 C-55.14062775 213.52710739 -55.14337708 214.6321109 -55.14620972 215.77059937 C-55.14436613 216.73479483 -55.14252254 217.69899029 -55.14062309 218.69240379 C-55.38671875 220.984375 -55.38671875 220.984375 -57.38671875 222.984375 C-60.44360352 223.22729492 -60.44360352 223.22729492 -64.328125 223.21484375 C-65.01100082 223.21438553 -65.69387665 223.21392731 -66.39744568 223.2134552 C-67.84074644 223.21043391 -69.28404397 223.20255122 -70.72729492 223.19018555 C-72.94396428 223.1719183 -75.16021633 223.16967593 -77.37695312 223.16992188 C-88.23929407 223.13179968 -88.23929407 223.13179968 -89.38671875 221.984375 C-89.48293911 220.27611812 -89.50859503 218.56385386 -89.50697327 216.85289001 C-89.50834793 215.74084702 -89.5097226 214.62880402 -89.51113892 213.48306274 C-89.50754364 212.25236053 -89.50394836 211.02165833 -89.50024414 209.75366211 C-89.50039017 208.46604477 -89.50053619 207.17842743 -89.50068665 205.85179138 C-89.50097461 202.3106274 -89.49507811 198.76949701 -89.48811269 195.22834086 C-89.48187892 191.53142512 -89.48127533 187.83450869 -89.48008728 184.1375885 C-89.47697403 177.13233601 -89.46876074 170.12709905 -89.45873779 163.12185341 C-89.44757645 155.14858624 -89.44206615 147.17531835 -89.43704236 139.20204532 C-89.42657812 122.79614611 -89.4089788 106.39026253 -89.38671875 89.984375 C-90.19415527 89.99484863 -91.0015918 90.00532227 -91.83349609 90.01611328 C-95.47620557 90.05757331 -99.1188655 90.08366938 -102.76171875 90.109375 C-104.03273438 90.12613281 -105.30375 90.14289063 -106.61328125 90.16015625 C-107.825 90.16660156 -109.03671875 90.17304688 -110.28515625 90.1796875 C-111.40583496 90.19016113 -112.52651367 90.20063477 -113.68115234 90.21142578 C-116.38671875 89.984375 -116.38671875 89.984375 -118.38671875 87.984375 C-118.64550781 85.49414062 -118.64550781 85.49414062 -118.65234375 82.390625 C-118.65492187 81.27816406 -118.6575 80.16570312 -118.66015625 79.01953125 C-118.64855469 77.26962891 -118.64855469 77.26962891 -118.63671875 75.484375 C-118.64445312 74.31777344 -118.6521875 73.15117187 -118.66015625 71.94921875 C-118.65757813 70.83675781 -118.655 69.72429687 -118.65234375 68.578125 C-118.65008789 67.55396484 -118.64783203 66.52980469 -118.64550781 65.47460938 C-118.38671875 62.984375 -118.38671875 62.984375 -116.38671875 60.984375 C-113.68115234 60.75732422 -113.68115234 60.75732422 -110.28515625 60.7890625 C-109.0734375 60.79550781 -107.86171875 60.80195313 -106.61328125 60.80859375 C-105.34226562 60.82535156 -104.07125 60.84210938 -102.76171875 60.859375 C-101.48296875 60.86839844 -100.20421875 60.87742187 -98.88671875 60.88671875 C-95.71986708 60.91035197 -92.55338451 60.94329871 -89.38671875 60.984375 C-89.4024292 60.25959961 -89.41813965 59.53482422 -89.43432617 58.78808594 C-89.49750018 55.43693151 -89.53596761 52.08590303 -89.57421875 48.734375 C-89.59935547 47.59484375 -89.62449219 46.4553125 -89.65039062 45.28125 C-89.77147877 31.07357403 -86.52660658 18.11615319 -76.51171875 7.609375 C-58.3735685 -9.15985825 -21.36753376 -12.71700971 0 0 Z " fill="#0073D6" transform="translate(1974.38671875,80.015625)"/>
<path d="M0 0 C1.30412338 -0.00281982 2.60824677 -0.00563965 3.95188904 -0.00854492 C5.41067519 -0.00660032 6.8694612 -0.00455213 8.32824707 -0.00241089 C9.85384666 -0.00376487 11.37944592 -0.00554478 12.90504456 -0.00772095 C17.05988675 -0.0122957 21.21470424 -0.01050555 25.36954689 -0.00734186 C29.70795384 -0.00481848 34.0463586 -0.00715574 38.38476562 -0.00872803 C45.67175681 -0.01054979 52.95873788 -0.00814325 60.24572754 -0.00338745 C68.68279376 0.00205518 77.11983582 0.00029253 85.55690145 -0.00521386 C92.78745274 -0.00974481 100.01799674 -0.01039562 107.24854898 -0.00777519 C111.57288414 -0.00621231 115.89720792 -0.00601893 120.22154236 -0.00931168 C124.28605219 -0.01219013 128.35053072 -0.01021518 132.41503716 -0.00441742 C133.91107061 -0.00308968 135.40710668 -0.00348417 136.90313911 -0.00568008 C138.93680861 -0.00839102 140.97048384 -0.00439727 143.00415039 0 C144.14495308 0.00037703 145.28575577 0.00075405 146.46112823 0.0011425 C149.0020752 0.12698364 149.0020752 0.12698364 150.0020752 1.12698364 C150.10201051 3.18753675 150.13288425 5.25150954 150.1348877 7.31448364 C150.13617676 8.57003052 150.13746582 9.82557739 150.13879395 11.11917114 C150.13669922 11.77627075 150.13460449 12.43337036 150.13244629 13.11038208 C150.12709753 15.11859699 150.13239211 17.12658823 150.13879395 19.13479614 C150.13686035 21.01811646 150.13686035 21.01811646 150.1348877 22.93948364 C150.13375977 24.10092896 150.13263184 25.26237427 150.13146973 26.45901489 C150.0020752 29.12698364 150.0020752 29.12698364 149.0020752 30.12698364 C147.09963758 30.22089661 145.19369061 30.24442022 143.28894043 30.24050903 C142.06775009 30.2404335 140.84655975 30.24035797 139.58836365 30.24028015 C138.24579834 30.23517276 136.90323344 30.22995675 135.56066895 30.22463989 C134.19446362 30.22277564 132.82825762 30.22135177 131.46205139 30.22035217 C127.86005824 30.21652758 124.2581052 30.20669781 120.65612793 30.19564819 C116.98303775 30.1854328 113.3099411 30.18085428 109.63684082 30.17581177 C102.42523397 30.16507548 95.21366019 30.14799978 88.0020752 30.12698364 C88.00299699 31.07950233 88.00391878 32.03202101 88.00486851 33.01340389 C88.02703554 56.1549955 88.04348547 79.29658573 88.05388737 102.43818569 C88.05905092 113.62913324 88.06609473 124.82007379 88.07751465 136.01101685 C88.08745969 145.76127742 88.09392819 155.51153293 88.09616369 165.26179844 C88.0974711 170.42787462 88.10055888 175.59393631 88.10780525 180.76000786 C88.11456263 185.61654698 88.11669274 190.47306554 88.11518288 195.32960892 C88.11545933 197.11751606 88.11746612 198.90542385 88.12128067 200.69332695 C88.12621352 203.12338163 88.12507501 205.55335741 88.12232971 207.9834137 C88.12524255 208.70032629 88.12815539 209.41723888 88.1311565 210.1558761 C88.11619641 215.01286243 88.11619641 215.01286243 87.0020752 216.12698364 C84.63809051 216.22776484 82.30396208 216.2667158 79.9395752 216.25979614 C79.23308838 216.26075287 78.52660156 216.26170959 77.79870605 216.26269531 C76.30236726 216.26337697 74.80602552 216.26152369 73.30969238 216.25735474 C71.01177362 216.25200622 68.71405033 216.25730015 66.4161377 216.26370239 C64.96561643 216.26304161 63.51509528 216.26176044 62.0645752 216.25979614 C61.0270813 216.26283249 61.0270813 216.26283249 59.96862793 216.26593018 C55.11702743 216.24193588 55.11702743 216.24193588 54.0020752 215.12698364 C53.90441828 212.73630227 53.8721054 210.37455098 53.88182068 207.9834137 C53.88096625 207.22710208 53.88011183 206.47079047 53.87923151 205.69156033 C53.87757444 203.13802882 53.88310177 200.58456191 53.8885498 198.03103638 C53.88883165 196.20825197 53.88867399 194.38546745 53.8881073 192.56268311 C53.88781923 187.59801477 53.8937174 182.63337036 53.90068126 177.66870761 C53.90691331 172.48634889 53.90751848 167.30398969 53.90870667 162.12162781 C53.91182042 152.30080806 53.9200344 142.47999938 53.93005615 132.65918452 C53.94121592 121.48162458 53.9467274 110.30406413 53.95175159 99.12650001 C53.96221698 76.12665366 53.98056301 53.1268225 54.0020752 30.12698364 C33.8720752 30.12698364 13.7420752 30.12698364 -6.9979248 30.12698364 C-6.9979248 0.00231275 -6.9979248 0.00231275 0 0 Z " fill="#0074D7" transform="translate(494.9979248046875,86.87301635742188)"/>
<path d="M0 0 C1.01449219 -0.00257812 2.02898437 -0.00515625 3.07421875 -0.0078125 C4.13253906 -0.00007813 5.19085937 0.00765625 6.28125 0.015625 C7.33957031 0.00789063 8.39789062 0.00015625 9.48828125 -0.0078125 C11.01001953 -0.00394531 11.01001953 -0.00394531 12.5625 0 C13.49126953 0.00225586 14.42003906 0.00451172 15.37695312 0.00683594 C17.78125 0.265625 17.78125 0.265625 20.78125 2.265625 C21.14201355 4.06265259 21.14201355 4.06265259 21.12182617 6.25634766 C21.12148628 7.48739731 21.12148628 7.48739731 21.12113953 8.74331665 C21.10565567 9.62981903 21.09017181 10.51632141 21.07421875 11.4296875 C21.06997391 12.33689545 21.06572906 13.24410339 21.06135559 14.17880249 C21.04453133 17.08304232 21.0068726 19.9865941 20.96875 22.890625 C20.95370799 24.85676083 20.94001875 26.82290751 20.92773438 28.7890625 C20.89461557 33.61484939 20.84280786 38.44012045 20.78125 43.265625 C21.39068451 43.26118378 22.00011902 43.25674255 22.62802124 43.25216675 C28.95413882 43.20802093 35.28021285 43.17779513 41.60644531 43.15576172 C43.96941911 43.14568576 46.33238039 43.13202471 48.6953125 43.11474609 C52.08596888 43.09056776 55.47646084 43.07915801 58.8671875 43.0703125 C59.92868011 43.05998993 60.99017273 43.04966736 62.08383179 43.03903198 C63.55513046 43.03880539 63.55513046 43.03880539 65.05615234 43.03857422 C65.92219086 43.034133 66.78822937 43.02969177 67.68051147 43.02511597 C69.78125 43.265625 69.78125 43.265625 71.78125 45.265625 C72.04003906 47.75585938 72.04003906 47.75585938 72.046875 50.859375 C72.05074219 52.52806641 72.05074219 52.52806641 72.0546875 54.23046875 C72.04695313 55.39707031 72.03921875 56.56367188 72.03125 57.765625 C72.04285156 59.51552734 72.04285156 59.51552734 72.0546875 61.30078125 C72.05210938 62.41324219 72.04953125 63.52570313 72.046875 64.671875 C72.04461914 65.69603516 72.04236328 66.72019531 72.04003906 67.77539062 C71.78125 70.265625 71.78125 70.265625 69.78125 72.265625 C67.68051147 72.50613403 67.68051147 72.50613403 65.05615234 72.49267578 C63.58485367 72.49244919 63.58485367 72.49244919 62.08383179 72.49221802 C61.02233917 72.48189545 59.96084656 72.47157288 58.8671875 72.4609375 C57.78241119 72.4581076 56.69763489 72.45527771 55.57998657 72.45236206 C52.10529687 72.44114078 48.63086218 72.41603262 45.15625 72.390625 C42.80469121 72.38059772 40.4531284 72.37147143 38.1015625 72.36328125 C32.32803756 72.34119511 26.55466199 72.30769845 20.78125 72.265625 C20.84264829 83.6799626 20.91988847 95.09407508 21.01696491 106.50816822 C21.06155933 111.80905936 21.10083927 117.10987558 21.12768555 122.41088867 C21.15382787 127.53334156 21.19430674 132.65550441 21.24443626 137.77777672 C21.26103136 139.7252 21.27259119 141.67267336 21.27886391 143.62015724 C20.60642621 159.56498659 20.60642621 159.56498659 26.09101868 173.95124817 C32.08638506 179.44449965 39.26605794 179.6874122 46.96875 179.59765625 C52.10263995 179.15054493 56.73898679 177.83080191 61.625 176.23828125 C64.68838175 175.29424405 67.59811976 174.63542984 70.78125 174.265625 C73.51155467 176.99592967 72.11511684 184.96855601 72.15625 188.640625 C72.21232422 190.5278125 72.21232422 190.5278125 72.26953125 192.453125 C72.28113281 193.65710938 72.29273438 194.86109375 72.3046875 196.1015625 C72.3344165 197.76517822 72.3344165 197.76517822 72.36474609 199.46240234 C71.78125 202.265625 71.78125 202.265625 69.45214844 204.07788086 C58.67473265 208.87057993 47.551956 209.64977738 35.90625 209.703125 C34.77815918 209.71303467 33.65006836 209.72294434 32.48779297 209.7331543 C20.61696284 209.6119522 8.35382652 206.97825428 -0.77734375 198.8671875 C-14.41731916 183.71165926 -13.51596912 162.68342251 -13.4140625 143.65234375 C-13.41032496 141.58584226 -13.4074815 139.51933899 -13.40548706 137.45283508 C-13.39790891 132.05574514 -13.37831143 126.65876557 -13.3560791 121.26171875 C-13.33549427 115.73764539 -13.32645851 110.21355392 -13.31640625 104.68945312 C-13.2950592 93.88146235 -13.26099485 83.07355291 -13.21875 72.265625 C-14.03142334 72.27086182 -14.84409668 72.27609863 -15.68139648 72.28149414 C-19.33967322 72.30219494 -22.99793767 72.31526303 -26.65625 72.328125 C-27.93564453 72.33650391 -29.21503906 72.34488281 -30.53320312 72.35351562 C-31.74814453 72.35673828 -32.96308594 72.35996094 -34.21484375 72.36328125 C-35.34075928 72.36851807 -36.4666748 72.37375488 -37.62670898 72.37915039 C-40.21875 72.265625 -40.21875 72.265625 -41.21875 71.265625 C-41.31858058 69.27805472 -41.34955753 67.2869498 -41.3515625 65.296875 C-41.35285156 64.08644531 -41.35414062 62.87601563 -41.35546875 61.62890625 C-41.35160156 60.35402344 -41.34773438 59.07914063 -41.34375 57.765625 C-41.34761719 56.49074219 -41.35148437 55.21585938 -41.35546875 53.90234375 C-41.35417969 52.69191406 -41.35289063 51.48148438 -41.3515625 50.234375 C-41.35043457 49.11482422 -41.34930664 47.99527344 -41.34814453 46.84179688 C-41.21875 44.265625 -41.21875 44.265625 -40.21875 43.265625 C-38.14612924 43.17795388 -36.07054706 43.15866627 -33.99609375 43.16796875 C-32.73603516 43.17119141 -31.47597656 43.17441406 -30.17773438 43.17773438 C-28.83723891 43.18609097 -27.49674412 43.19455593 -26.15625 43.203125 C-24.81185058 43.2081384 -23.4674494 43.21270158 -22.12304688 43.21679688 C-18.82157059 43.22863012 -15.52018197 43.24511529 -12.21875 43.265625 C-12.11328857 42.03408691 -12.00782715 40.80254883 -11.89916992 39.53369141 C-11.50500562 34.97394824 -11.09258218 30.41601123 -10.67456055 25.85839844 C-10.49605092 23.88390982 -10.32252676 21.90896397 -10.15405273 19.93359375 C-9.91131443 17.09761306 -9.6508144 14.2637489 -9.38671875 11.4296875 C-9.31470749 10.54318512 -9.24269623 9.65668274 -9.16850281 8.74331665 C-9.08864639 7.92261688 -9.00878998 7.10191711 -8.92651367 6.25634766 C-8.82991707 5.1704686 -8.82991707 5.1704686 -8.73136902 4.06265259 C-7.51102477 -0.21536324 -3.71327449 0.00901906 0 0 Z " fill="#0073D6" transform="translate(1278.21875,97.734375)"/>
<path d="M0 0 C1.0830542 0.00326294 1.0830542 0.00326294 2.18798828 0.0065918 C4.39405609 0.00975375 6.59878544 -0.01371013 8.8046875 -0.0390625 C10.20182122 -0.04133526 11.59895856 -0.0420391 12.99609375 -0.04101562 C14.27162109 -0.04399658 15.54714844 -0.04697754 16.86132812 -0.05004883 C18.36663086 0.13424683 18.36663086 0.13424683 19.90234375 0.32226562 C22.30007095 3.91885642 22.17723489 6.47964032 22.14285278 10.63041687 C22.14456163 11.38027023 22.14627048 12.13012358 22.14803112 12.90269977 C22.15133281 15.42245283 22.14031123 17.94194127 22.12939453 20.46166992 C22.12883056 22.2650451 22.12914669 24.06842074 22.13027954 25.87179565 C22.13085462 30.77439424 22.11907523 35.67689545 22.10513163 40.57947135 C22.09265009 45.70042159 22.0914558 50.82137393 22.08908081 55.94233704 C22.08285845 65.64269216 22.06643742 75.34300233 22.04638183 85.04333764 C22.02404633 96.08551248 22.01303532 107.12768943 22.00299096 118.16988122 C21.98207185 140.88736763 21.9468812 163.60481411 21.90234375 186.32226562 C23.04017807 186.32004501 24.17801239 186.3178244 25.35032654 186.3155365 C36.04865124 186.29530629 46.74697209 186.28029407 57.44531155 186.27045345 C62.94605237 186.26522432 68.4467778 186.25812612 73.94750977 186.24682617 C79.25130935 186.23599838 84.5550941 186.22998902 89.85890388 186.22738838 C91.88719987 186.22553394 93.91549501 186.22191296 95.94378471 186.21653557 C98.77430889 186.20932657 101.60477093 186.20827462 104.43530273 186.20874023 C105.28262466 186.20514496 106.12994659 186.20154968 107.00294495 186.19784546 C112.78829159 186.20821346 112.78829159 186.20821346 113.90234375 187.32226562 C114.00227907 189.38281873 114.03315281 191.44679152 114.03515625 193.50976562 C114.03644531 194.7653125 114.03773437 196.02085937 114.0390625 197.31445312 C114.03696777 197.97155273 114.03487305 198.62865234 114.03271484 199.30566406 C114.02736609 201.31387897 114.03266066 203.32187022 114.0390625 205.33007812 C114.03777344 206.585625 114.03648438 207.84117187 114.03515625 209.13476562 C114.03402832 210.29621094 114.03290039 211.45765625 114.03173828 212.65429688 C113.90234375 215.32226562 113.90234375 215.32226562 112.90234375 216.32226562 C111.28278035 216.41829585 109.65901292 216.44414417 108.03660583 216.44252014 C106.98346191 216.44389481 105.93031799 216.44526947 104.84526062 216.44668579 C103.09739006 216.44129288 103.09739006 216.44129288 101.31420898 216.43579102 C99.48519547 216.43601006 99.48519547 216.43601006 97.61923218 216.43623352 C94.26606864 216.43565455 90.91296601 216.43062531 87.55981326 216.42365956 C84.05908813 216.41742545 80.55836227 216.41682218 77.05763245 216.41563416 C70.42424719 216.41252101 63.79087834 216.40430784 57.15750033 216.39428467 C49.60744168 216.38312302 42.05738226 216.37761295 34.50731742 216.37258923 C18.97231669 216.36212522 3.43733233 216.3445261 -12.09765625 216.32226562 C-13.70822838 213.10112137 -13.23807056 209.58541611 -13.23136902 206.046875 C-13.23363458 205.18086418 -13.23590013 204.31485336 -13.23823434 203.42259979 C-13.24459416 200.50372507 -13.24374372 197.58489654 -13.24291992 194.66601562 C-13.24591014 192.58032165 -13.24931235 190.49462823 -13.25309753 188.40893555 C-13.2619548 182.73141186 -13.26427635 177.05390322 -13.26491332 171.37637329 C-13.26586086 166.64439483 -13.26953728 161.91241991 -13.27308542 157.18044281 C-13.28123623 146.0219861 -13.28366905 134.86353747 -13.28295898 123.70507812 C-13.28235774 112.17503694 -13.29291746 100.64504248 -13.30870265 89.11501312 C-13.32175419 79.23136931 -13.3271439 69.34774081 -13.32650357 59.46408844 C-13.32624792 53.5540859 -13.32913614 47.64412486 -13.33968163 41.73413086 C-13.34932279 36.17906107 -13.34946933 30.62407281 -13.34216499 25.06900024 C-13.34111423 23.02511476 -13.34351091 20.98122431 -13.34952545 18.93734741 C-13.35717916 16.1573527 -13.35264494 13.37764427 -13.34489441 10.59765625 C-13.35003797 9.77996513 -13.35518154 8.96227402 -13.36048096 8.11980438 C-13.30079385 -1.50049521 -8.02483866 0.03203173 0 0 Z " fill="#0073D6" transform="translate(1398.09765625,86.677734375)"/>
<path d="M0 0 C4.53897705 -0.02465392 9.07791543 -0.04283789 13.61694336 -0.05493164 C15.16219766 -0.0599714 16.70744716 -0.0668032 18.25268555 -0.07543945 C20.46925029 -0.08752076 22.68575218 -0.09323173 24.90234375 -0.09765625 C25.5971434 -0.10281754 26.29194305 -0.10797882 27.00779724 -0.11329651 C28.6722933 -0.11349277 30.33665499 -0.06189129 32 0 C33.85443251 1.85443251 33.12547285 4.49302763 33.13374341 6.96102381 C33.13151268 7.82511032 33.12928196 8.68919683 33.12698364 9.57946777 C33.12854363 10.49024881 33.13010362 11.40102984 33.13171089 12.33941031 C33.13572502 15.41574273 33.13252965 18.49202651 33.12939453 21.56835938 C33.13074839 23.76390105 33.13252823 25.9594425 33.13470459 28.15498352 C33.13928077 34.13621129 33.13748861 40.11742189 33.1343255 46.09864998 C33.13180285 52.34290744 33.13413917 58.58716338 33.13571167 64.8314209 C33.13765052 75.99255281 33.13453274 87.15367839 33.12945233 98.31480879 C33.12498429 108.44441417 33.12576022 118.5740081 33.13037109 128.70361328 C33.1357168 140.45315458 33.13771772 152.20269029 33.13475883 163.95223284 C33.13319562 170.17687283 33.13300349 176.40150492 33.13629532 182.62614441 C33.13917289 188.47665891 33.13720045 194.32715166 33.13140106 200.1776638 C33.13007285 202.3316208 33.13046861 204.48557961 33.13266373 206.6395359 C33.13537283 209.56655984 33.13199706 212.49351288 33.12698364 215.42053223 C33.12921436 216.28461874 33.13144509 217.14870524 33.13374341 218.03897619 C33.11414982 223.88585018 33.11414982 223.88585018 32 225 C29.6243148 225.0883967 27.27791326 225.11530305 24.90234375 225.09765625 C23.83905602 225.09553383 23.83905602 225.09553383 22.75428772 225.09336853 C20.48198288 225.08775443 18.20977525 225.07519963 15.9375 225.0625 C14.40039204 225.05748681 12.86328255 225.05292359 11.32617188 225.04882812 C7.55074358 225.03778042 3.77538829 225.02050641 0 225 C-1.29936134 221.10191599 -1.13775499 217.40782907 -1.12698364 213.34533691 C-1.12854363 212.45059237 -1.13010362 211.55584783 -1.13171089 210.63398981 C-1.13571231 207.62381519 -1.13253453 204.61369065 -1.12939453 201.60351562 C-1.13074895 199.45033234 -1.13252911 197.29714929 -1.13470459 195.14396667 C-1.13927407 189.28668592 -1.13749134 183.42942272 -1.1343255 177.57214165 C-1.13179941 171.4516177 -1.13414014 165.33109529 -1.13571167 159.21057129 C-1.13753263 148.93090545 -1.13512897 138.65124678 -1.13037109 128.37158203 C-1.12492862 116.47516953 -1.12669132 104.57877417 -1.1321975 92.68236208 C-1.13673071 82.48106378 -1.13737816 72.27977064 -1.13475883 62.07847166 C-1.1331972 55.98011208 -1.13299918 49.88176056 -1.13629532 43.78340149 C-1.13917703 38.05104581 -1.13719277 32.3187123 -1.13140106 26.58635902 C-1.13007508 24.47839202 -1.13046485 22.37042317 -1.13266373 20.26245689 C-1.13538155 17.39316682 -1.13198625 14.52394854 -1.12698364 11.65466309 C-1.12921436 10.81333029 -1.13144509 9.9719975 -1.13374341 9.10516977 C-1.12254779 5.81233231 -1.04875119 3.14625358 0 0 Z " fill="#0073D6" transform="translate(817,78)"/>
<path d="M0 0 C0.66 0.33 1.32 0.66 2 1 C-1.96 4.96 -5.92 8.92 -10 13 C-10.33 12.34 -10.66 11.68 -11 11 C-9.92173635 9.72486237 -8.83714481 8.45507431 -7.75 7.1875 C-7.14671875 6.47980469 -6.5434375 5.77210938 -5.921875 5.04296875 C-4.07629602 3.08110329 -2.20054668 1.54330375 0 0 Z " fill="#0062C1" transform="translate(666,148)"/>
<path d="M0 0 C0.66 0.33 1.32 0.66 2 1 C-1.96 4.96 -5.92 8.92 -10 13 C-10 9.28115772 -9.1259934 8.63852271 -6.6875 5.9375 C-5.76517578 4.89916016 -5.76517578 4.89916016 -4.82421875 3.83984375 C-3 2 -3 2 0 0 Z " fill="#0060BE" transform="translate(1718,221)"/>
<path d="M0 0 C0.66 0.33 1.32 0.66 2 1 C-1.63 4.63 -5.26 8.26 -9 12 C-9 8.00102358 -7.64683965 6.93298448 -5 4 C-3.36643049 2.62631655 -1.7074998 1.28062485 0 0 Z " fill="#0061BD" transform="translate(661,221)"/>
</svg>
