<?xml version="1.0" encoding="UTF-8"?>
<svg version="1.1" xmlns="http://www.w3.org/2000/svg" width="2000" height="389">
<path d="M0 0 C1.68977939 -0.00299693 3.37955811 -0.00640068 5.06933594 -0.01017761 C9.63579183 -0.01896888 14.20222895 -0.0213537 18.76869249 -0.0219934 C21.62960407 -0.02270684 24.49051095 -0.02484673 27.35142136 -0.02749062 C37.35505218 -0.03672893 47.35866973 -0.04082753 57.36230469 -0.04003906 C66.64962805 -0.03943914 75.93689316 -0.04997803 85.2242018 -0.06578273 C93.22798705 -0.07891202 101.2317534 -0.08422069 109.23554933 -0.08358365 C114.00234617 -0.08333019 118.76909123 -0.08609691 123.53587723 -0.0967617 C128.0257356 -0.10653353 132.51549366 -0.10646049 137.00535583 -0.09924507 C138.64022851 -0.09821031 140.27510774 -0.10049495 141.90996933 -0.10660553 C155.76630927 -0.15498359 169.62500112 0.51329164 182.95849609 4.64526367 C183.78687988 4.90025635 184.61526367 5.15524902 185.46875 5.41796875 C213.90410003 14.68381298 236.11411411 34.63754938 250.07177734 60.87573242 C252.23181388 65.16510347 253.96869494 69.5406798 255.52099609 74.08276367 C255.74746826 74.73647949 255.97394043 75.39019531 256.20727539 76.0637207 C260.63442362 90.00898807 261.59107817 104.09138298 261.53417969 118.60424805 C261.53825769 120.38210876 261.54360638 122.15996694 261.55010986 123.93782043 C261.56364339 128.712661 261.55854332 133.48730443 261.54897261 138.2621479 C261.54130278 143.29232383 261.54844172 148.32248444 261.5531311 153.35266113 C261.55856755 161.79511501 261.55145279 170.23748981 261.53710938 178.67993164 C261.52078698 188.3985616 261.52607699 198.11700265 261.54258859 207.83562803 C261.55626396 216.22514302 261.55809372 224.61460161 261.55027258 233.00412416 C261.54562915 237.99498363 261.54487836 242.98575472 261.55488205 247.97660828 C261.56363816 252.67181292 261.5573745 257.36677733 261.54019928 262.06195641 C261.53628007 263.77058707 261.53728853 265.47923846 261.54398727 267.18786049 C261.64348608 295.17743093 254.25208873 321.36817631 236.14599609 343.14526367 C235.43701172 344.00635742 234.72802734 344.86745117 233.99755859 345.75463867 C224.58515453 356.69613365 213.84129918 364.56142045 201.14599609 371.14526367 C199.79248047 371.85295898 199.79248047 371.85295898 198.41162109 372.57495117 C193.09146529 375.17054233 187.6037605 377.08889146 181.95849609 378.83276367 C181.00753052 379.13670044 181.00753052 379.13670044 180.03735352 379.44677734 C166.92225265 383.29038864 153.15868523 383.44127358 139.61083984 383.40405273 C137.92017467 383.40677128 136.22951068 383.41033701 134.53884888 383.41467285 C129.99751436 383.42369654 125.45627194 383.42029451 120.91493607 383.41391468 C116.13119534 383.40880221 111.34746178 383.41356056 106.5637207 383.41668701 C98.53481653 383.42031152 90.50594932 383.41556756 82.47705078 383.40600586 C73.23390331 383.39512426 63.99084412 383.39865091 54.74769878 383.40965867 C46.7692652 383.41877496 38.79085797 383.41999571 30.81242085 383.41478133 C26.06584034 383.41168538 21.31930114 383.41118614 16.57272339 383.41785431 C12.10739954 383.42369075 7.64218797 383.41951747 3.17687607 383.4080658 C1.55167704 383.40545252 -0.07353166 383.40612613 -1.69872665 383.41059113 C-36.05011537 383.49616522 -65.22944482 374.0862037 -90.35400391 350.02026367 C-108.7660207 331.08959852 -121.0272514 304.89312028 -120.9944458 278.23597717 C-120.99741692 277.46949386 -121.00038805 276.70301054 -121.0034492 275.91330045 C-121.01207846 273.3604833 -121.01363955 270.80771336 -121.01513672 268.25488281 C-121.01976914 266.41776429 -121.02479437 264.58064673 -121.03018188 262.74353027 C-121.04327064 257.76162476 -121.04974444 252.77973271 -121.05419254 247.7978127 C-121.05713013 244.67912 -121.06123631 241.56043091 -121.06569672 238.44174004 C-121.07936494 228.66643131 -121.08903381 218.89113093 -121.09289861 209.11581331 C-121.09737203 197.86531972 -121.11488951 186.61494806 -121.1438992 175.36449152 C-121.165589 166.64739712 -121.17560684 157.93033684 -121.17693973 149.21321577 C-121.17798292 144.01710179 -121.18378608 138.82110252 -121.20175934 133.62501717 C-121.21836574 128.72888632 -121.22033521 123.83295488 -121.21162033 118.93680573 C-121.21085652 117.1519638 -121.21510467 115.36711059 -121.22507858 113.58229637 C-121.39097409 82.01247683 -110.72224041 53.97872422 -88.41650391 31.33276367 C-83.28612381 26.27253126 -78.01894681 21.91374509 -71.85400391 18.14526367 C-70.82017578 17.49041992 -69.78634766 16.83557617 -68.72119141 16.16088867 C-47.58527032 3.15793534 -24.39785419 -0.0086749 0 0 Z M16.14599609 123.14526367 C12.98499102 126.69343884 10.0697024 130.40095409 7.14599609 134.14526367 C6.23905673 135.24428044 5.32873307 136.34051076 4.41552734 137.43432617 C-15.1442294 161.03245867 -32.20584495 187.9136356 -38.85400391 218.14526367 C-39.19044922 219.50651367 -39.19044922 219.50651367 -39.53369141 220.89526367 C-43.79540538 240.97786101 -41.04109831 263.47941011 -35.85400391 283.14526367 C-33.2333126 280.52457237 -31.99081498 277.44848458 -30.41650391 274.14526367 C-23.39872035 259.82015165 -15.03260594 246.43415463 -4.85400391 234.14526367 C-4.37286133 233.56260742 -3.89171875 232.97995117 -3.39599609 232.37963867 C4.37682303 223.02226414 12.4671595 214.22029023 21.71630859 206.28979492 C25.09144539 203.31077546 28.36349175 200.22564435 31.64599609 197.14526367 C36.73293984 192.3799261 41.84062143 187.66787814 47.14599609 183.14526367 C48.82279924 181.71367622 50.4990766 180.28147858 52.17480469 178.84863281 C53.40742536 177.79482526 54.64082677 176.74193025 55.875 175.68994141 C59.34631962 172.72213452 62.73839806 169.69331393 66.08349609 166.58276367 C70.18986269 162.85838466 74.50635912 159.50259264 78.95849609 156.20776367 C79.59327881 155.73459717 80.22806152 155.26143066 80.88208008 154.77392578 C86.64424293 150.58014425 90.83933132 148.53866963 98.04833984 149.62182617 C100.14599609 150.14526367 100.14599609 150.14526367 102.77099609 151.64526367 C104.58741847 154.94784982 104.48996459 157.10882375 103.86474609 160.78198242 C101.54211608 168.4188909 95.63147625 172.46407998 89.32958984 176.82495117 C85.63116478 179.52049042 82.20810807 182.4406797 78.77099609 185.45776367 C78.13234619 186.01810303 77.49369629 186.57844238 76.83569336 187.15576172 C75.55368861 188.28158644 74.27202836 189.40780358 72.99072266 190.53442383 C70.23749033 192.93858302 67.44374296 195.29322146 64.64599609 197.64526367 C29.68908065 226.79100781 29.68908065 226.79100781 0.14599609 261.14526367 C-0.48459717 262.00933838 -0.48459717 262.00933838 -1.12792969 262.89086914 C-9.76940924 274.80350945 -16.94623099 287.90857556 -20.85400391 302.14526367 C41.26791334 303.64314909 98.65957049 285.37785738 144.14599609 242.14526367 C144.77763672 241.56647461 145.40927734 240.98768555 146.06005859 240.39135742 C189.78488692 199.04963585 210.18090821 131.43488286 212.14599609 73.14526367 C210.23027688 72.82700709 208.31334192 72.51606928 206.39599609 72.20776367 C205.32865234 72.03374023 204.26130859 71.8597168 203.16162109 71.68041992 C190.98713354 69.96370693 178.79112831 69.90307584 166.52099609 69.89526367 C165.56713013 69.89458893 164.61326416 69.89391418 163.63049316 69.89321899 C109.29701618 69.95412075 55.43276286 83.80300712 16.14599609 123.14526367 Z M70.84179688 172.67163086 C69.1525778 174.13954424 67.44760109 175.58654158 65.73583984 177.02807617 C58.79725125 182.88462557 52.06481986 188.91942848 45.47070312 195.16210938 C41.77555533 198.65619917 38.00169722 202.03445492 34.16357422 205.37060547 C28.00274728 210.78965811 22.09296141 216.49412954 16.14599609 222.14526367 C15.60974609 222.65138184 15.07349609 223.1575 14.52099609 223.67895508 C-13.9738062 250.68649541 -42.85393378 297.22600803 -43.94775391 337.60620117 C-43.91681641 338.4440918 -43.88587891 339.28198242 -43.85400391 340.14526367 C-41.87400391 340.14526367 -39.89400391 340.14526367 -37.85400391 340.14526367 C-37.70366699 339.48220215 -37.55333008 338.81914062 -37.3984375 338.13598633 C-29.90077123 305.32873764 -19.2103872 274.68199033 2.14599609 248.14526367 C2.77610596 247.34668945 3.40621582 246.54811523 4.05541992 245.7253418 C9.55247877 238.85386627 15.44645618 232.57114953 21.70849609 226.39526367 C22.60246094 225.50194336 23.49642578 224.60862305 24.41748047 223.68823242 C28.9324423 219.20299602 33.51122666 214.85670918 38.33862305 210.7097168 C41.11619252 208.30546647 43.77954264 205.7830772 46.45849609 203.27026367 C51.25461003 198.80824543 56.17440904 194.57740719 61.28662109 190.47729492 C63.93471781 188.31757669 66.51438653 186.1000685 69.08862305 183.85400391 C75.49985456 178.26447214 82.0999726 173.05285729 88.99243164 168.06591797 C89.63607666 167.59581299 90.27972168 167.12570801 90.94287109 166.64135742 C91.51360352 166.23071045 92.08433594 165.82006348 92.67236328 165.39697266 C94.42524854 164.02436032 94.42524854 164.02436032 96.14599609 161.14526367 C95.8338197 158.4989408 95.8338197 158.4989408 95.14599609 156.14526367 C86.6798111 156.14526367 77.03702299 167.25462723 70.84179688 172.67163086 Z " fill="#2D9852" transform="translate(141.85400390625,2.854736328125)"/>
<path d="M0 0 C12.58902475 10.73708557 17.80177825 26.66070232 19.17138672 42.76245117 C19.5098021 48.49958223 19.51121881 54.2353132 19.49365234 59.98022461 C19.48820981 62.1060269 19.49367395 64.2316253 19.5 66.35742188 C19.49934052 67.71354213 19.49806207 69.06966226 19.49609375 70.42578125 C19.49496582 71.64402588 19.49383789 72.86227051 19.49267578 74.11743164 C19.36328125 77.015625 19.36328125 77.015625 18.36328125 79.015625 C-15.29671875 79.015625 -48.95671875 79.015625 -83.63671875 79.015625 C-83.20398374 101.28666978 -83.20398374 101.28666978 -72.63671875 120.015625 C-61.85721521 127.36621979 -48.20735155 128.17644896 -35.63671875 126.015625 C-30.4592271 124.74914098 -25.37674721 123.30401435 -21.57421875 119.390625 C-19.39211724 115.58954494 -18.67938947 112.39525922 -18.09375 108.08984375 C-17.86751953 107.06310547 -17.86751953 107.06310547 -17.63671875 106.015625 C-13.32335973 103.85894549 -7.56949696 104.78865646 -2.77832031 104.77539062 C-0.64478916 104.7656618 1.48778781 104.73462744 3.62109375 104.703125 C4.97265052 104.69659709 6.32421419 104.69134579 7.67578125 104.6875 C8.90941406 104.6781543 10.14304687 104.66880859 11.4140625 104.65917969 C12.38730469 104.77680664 13.36054687 104.89443359 14.36328125 105.015625 C17.52747474 109.76191524 16.73585756 114.49565434 15.93359375 119.921875 C13.63308175 130.94161151 8.04323326 138.55012773 -0.90625 145.265625 C-21.60794722 158.53366556 -51.49394813 158.99702174 -74.83837891 153.91992188 C-89.3132284 150.35118965 -101.67729532 142.96328905 -109.57421875 130.015625 C-118.45094033 113.42907481 -117.96696512 95.33540015 -117.89746094 76.95288086 C-117.88674873 73.58754415 -117.8974079 70.22274238 -117.91015625 66.85742188 C-117.9256454 44.10720262 -117.46001314 20.62994182 -101.26171875 2.828125 C-76.39575916 -20.68968015 -26.35323751 -20.59442584 0 0 Z M-76.63671875 26.015625 C-82.45660619 34.71576285 -83.63671875 43.73765843 -83.63671875 54.015625 C-60.86671875 54.015625 -38.09671875 54.015625 -14.63671875 54.015625 C-14.63671875 40.73821206 -15.96496711 31.00507909 -25.26171875 21.265625 C-39.95188654 10.37718405 -64.6818043 11.83274922 -76.63671875 26.015625 Z " fill="#2D9652" transform="translate(1007.63671875,150.984375)"/>
<path d="M0 0 C11.01391707 10.38831341 17.73658705 24.71144415 18.39405823 39.9375 C18.43211214 42.35082863 18.43944012 44.76216099 18.43359375 47.17578125 C18.43455048 48.05134674 18.4355072 48.92691223 18.43649292 49.82901001 C18.43716975 51.66611809 18.43535033 53.50322862 18.43115234 55.34033203 C18.42575814 58.16444165 18.43113389 60.98839503 18.4375 63.8125 C18.43683989 65.60026077 18.43556012 67.38802144 18.43359375 69.17578125 C18.43561798 70.02361176 18.43764221 70.87144226 18.43972778 71.7449646 C18.41575767 77.66236733 18.41575767 77.66236733 17.30078125 78.77734375 C14.16518239 78.87269333 11.05164512 78.90285254 7.91577148 78.89086914 C6.43788651 78.89108818 6.43788651 78.89108818 4.93014526 78.89131165 C1.65653318 78.89061207 -1.61702279 78.8828176 -4.890625 78.875 C-7.15364043 78.87313598 -9.41665626 78.871712 -11.67967224 78.87071228 C-17.64900823 78.86688585 -23.61832007 78.8570545 -29.58764648 78.8460083 C-35.67366204 78.83579687 -41.75968148 78.83121524 -47.84570312 78.82617188 C-59.79688564 78.81543234 -71.74805019 78.79835443 -83.69921875 78.77734375 C-83.56447922 81.9703973 -83.41980635 85.16292882 -83.2734375 88.35546875 C-83.23569214 89.25281738 -83.19794678 90.15016602 -83.15905762 91.07470703 C-82.57357169 103.56126537 -80.23410908 112.06092869 -71.44921875 121.08984375 C-60.9906656 127.50759227 -47.53932658 127.7028179 -35.7890625 125.56640625 C-29.76844895 124.02890443 -24.38046754 122.14159986 -20.69921875 116.96484375 C-19.53714221 113.26072477 -18.59554104 109.55470196 -17.69921875 105.77734375 C-15.26905838 103.34718338 -9.44146744 104.6041182 -6.04492188 104.59179688 C-4.99123413 104.59191772 -4.99123413 104.59191772 -3.91625977 104.59204102 C-1.77404875 104.58985632 0.36764596 104.57170863 2.50976562 104.55273438 C3.86588365 104.54980016 5.22200413 104.54781555 6.578125 104.546875 C7.81812256 104.54276611 9.05812012 104.53865723 10.33569336 104.53442383 C13.30078125 104.77734375 13.30078125 104.77734375 15.30078125 106.77734375 C16.4816118 116.86932578 15.38542264 126.14870792 9.34765625 134.46875 C-2.27656543 148.10485621 -18.12484838 154.26118749 -35.69921875 155.77734375 C-59.74626417 157.11415179 -82.32299496 155.67181483 -101.78515625 140.109375 C-112.94833191 130.07962522 -116.87604496 115.56621159 -117.98194885 101.07176208 C-118.09067801 97.32461014 -118.11550449 93.58850622 -118.09765625 89.83984375 C-118.09968741 88.46231941 -118.10260738 87.08479613 -118.10635376 85.70727539 C-118.11072836 82.84673636 -118.10450621 79.98648198 -118.09033203 77.12597656 C-118.07324276 73.50569478 -118.08311057 69.88608081 -118.10104942 66.26582336 C-118.11202092 63.42919105 -118.10838071 60.59271052 -118.10066605 57.756073 C-118.09776313 55.78732863 -118.1066848 53.81857771 -118.11605835 51.84985352 C-117.97693534 33.72800768 -113.88628296 16.70227451 -101.69921875 2.77734375 C-77.27181901 -20.54773651 -25.88155343 -21.31201722 0 0 Z M-75.69921875 23.77734375 C-83.03856824 32.98833251 -83.69921875 42.1992135 -83.69921875 53.77734375 C-60.92921875 53.77734375 -38.15921875 53.77734375 -14.69921875 53.77734375 C-15.94130079 35.54481857 -15.94130079 35.54481857 -25.69921875 20.77734375 C-40.12457859 11.62454423 -63.26998572 10.75624248 -75.69921875 23.77734375 Z " fill="#2D9652" transform="translate(1648.69921875,151.22265625)"/>
<path d="M0 0 C0.76699219 0.4434375 1.53398438 0.886875 2.32421875 1.34375 C13.63684638 8.37440783 18.97686619 18.31034552 22.421875 30.96875 C23.85989731 38.50865077 24.15150223 46.11177727 24.18945312 53.76977539 C24.20189308 55.15014984 24.20189308 55.15014984 24.21458435 56.55841064 C24.23185835 58.53948909 24.24705844 60.52058653 24.26036072 62.50169563 C24.28162665 65.65347828 24.30863169 68.80516799 24.33703613 71.95689392 C24.3964136 78.65872553 24.44864677 85.36060277 24.5 92.0625 C24.55963025 99.813315 24.62231474 107.56408475 24.69187927 115.31481743 C24.71804911 118.39028792 24.73910911 121.46576413 24.7598877 124.54127502 C24.83747948 134.05666115 25.01854031 143.52425368 25.74651337 153.0154047 C25.86695626 154.67471806 25.93886906 156.33744464 26 158 C25 159 25 159 22.22436523 159.11352539 C21.01466064 159.10828857 19.80495605 159.10305176 18.55859375 159.09765625 C17.25341797 159.09443359 15.94824219 159.09121094 14.60351562 159.08789062 C13.2148431 159.07953401 11.82617123 159.07106905 10.4375 159.0625 C9.04492344 159.05748666 7.65234519 159.05292347 6.25976562 159.04882812 C2.8398013 159.03699434 -0.58007844 159.0205088 -4 159 C-5.57890277 156.13859497 -6.37190162 153.67993456 -6.8515625 150.453125 C-7.04492188 149.18662109 -7.04492188 149.18662109 -7.2421875 147.89453125 C-7.36851562 147.02183594 -7.49484375 146.14914062 -7.625 145.25 C-7.7590625 144.36183594 -7.893125 143.47367188 -8.03125 142.55859375 C-8.36023003 140.3732264 -8.68292466 138.18712086 -9 136 C-9.68980957 136.75192627 -9.68980957 136.75192627 -10.39355469 137.51904297 C-23.78253893 151.90691282 -41.26290432 162.62334009 -61.24169922 163.40478516 C-72.60260125 163.57404921 -83.20208834 161.65880304 -92.06640625 154.046875 C-102.9406582 142.53554566 -104.41542615 127.91586767 -104.21484375 112.84765625 C-103.81147107 100.00236597 -99.93246767 88.8163204 -90.48046875 79.9140625 C-69.60412679 63.80475926 -35.52850413 61.54224751 -10 62 C-9.91424863 44.35984466 -9.91424863 44.35984466 -16.25 28.4375 C-22.68989843 22.72940821 -30.38216743 21.68909239 -38.765625 21.8515625 C-46.57273088 22.37021639 -54.08333452 23.49037785 -60 29 C-62.62899477 33.57953928 -63.37615547 37.80129561 -64 43 C-65 44 -65 44 -67.95922852 44.11352539 C-69.25272217 44.10828857 -70.54621582 44.10305176 -71.87890625 44.09765625 C-72.90889992 44.09553383 -72.90889992 44.09553383 -73.95970154 44.09336853 C-76.16067801 44.08775479 -78.36155409 44.07520007 -80.5625 44.0625 C-82.05143083 44.05748676 -83.54036324 44.05292355 -85.02929688 44.04882812 C-88.68623075 44.03778093 -92.34310558 44.02050713 -96 44 C-98.84412187 33.65974297 -98.2186571 24.57551761 -93 15 C-84.71407638 2.5372484 -70.81135842 -2.39223515 -56.890625 -5.75 C-39.32944869 -9.02565983 -15.87908721 -9.2706308 0 0 Z M-24.68139648 86.11694336 C-26.0821183 86.24547792 -27.48316001 86.3705812 -28.88452148 86.49194336 C-50.12987637 87.87470551 -50.12987637 87.87470551 -67.4375 98.8125 C-71.36247433 106.81944763 -72.32781361 115.13219258 -69.8125 123.75 C-67.97699323 128.68777172 -65.29371048 131.69816432 -60.6875 134.3125 C-51.29168351 136.71608096 -41.94100645 133.81508878 -33.6953125 129.1171875 C-25.00695313 123.30411252 -17.37818735 116.37818735 -10 109 C-9.72191783 106.47622345 -9.72191783 106.47622345 -9.8046875 103.5546875 C-9.81435547 101.94013672 -9.81435547 101.94013672 -9.82421875 100.29296875 C-9.84097656 99.16503906 -9.85773438 98.03710938 -9.875 96.875 C-9.88402344 95.73933594 -9.89304687 94.60367188 -9.90234375 93.43359375 C-9.92596902 90.62218701 -9.95890987 87.81119702 -10 85 C-14.89741045 85 -19.80588086 85.66402047 -24.68139648 86.11694336 Z " fill="#2D9651" transform="translate(747,144)"/>
<path d="M0 0 C11.20388035 10.14813009 15.16143048 23.52451449 16.20755768 38.3360939 C16.50111206 44.94536056 16.49760249 51.55731977 16.5078125 58.171875 C16.52217027 60.30068419 16.53793556 62.42948429 16.55502319 64.55827332 C16.59655861 70.12552069 16.62174823 75.69271179 16.64251709 81.2600708 C16.67852876 90.15559321 16.74016531 99.05097532 16.80100632 107.94635582 C16.81974393 111.01622388 16.83172399 114.08605488 16.84243774 117.15596008 C16.89054763 127.17910852 17.09306121 137.15133511 17.77417946 147.15414906 C17.8958697 149.04740999 17.96885847 150.9437022 18.03125 152.83984375 C15.25758223 155.61351152 6.89185406 154.12484912 3.15625 154.15234375 C1.85042969 154.18134766 0.54460937 154.21035156 -0.80078125 154.24023438 C-2.04988281 154.24861328 -3.29898437 154.25699219 -4.5859375 154.265625 C-6.31239502 154.28749878 -6.31239502 154.28749878 -8.07373047 154.30981445 C-10.96875 153.83984375 -10.96875 153.83984375 -12.82421875 152.04980469 C-14.52112558 148.77326871 -14.76155718 145.39564011 -15.09375 141.77734375 C-15.62168078 136.2322597 -15.62168078 136.2322597 -16.96875 130.83984375 C-17.62617187 131.54947266 -17.62617187 131.54947266 -18.296875 132.2734375 C-31.95802338 146.51768368 -49.07654692 157.42306602 -69.20385742 158.24023438 C-80.56232241 158.43161966 -91.17659626 156.49370237 -100.03515625 148.88671875 C-110.70880833 137.58774159 -112.40637106 123.08753433 -112.18359375 108.203125 C-111.77638644 96.6217445 -108.34985196 85.37309209 -100.53125 76.65234375 C-79.72093779 57.4666284 -44.40874226 57.84214411 -17.96875 56.83984375 C-18.08394181 53.86001351 -18.21065802 50.88138583 -18.34375 47.90234375 C-18.3746875 47.07154297 -18.405625 46.24074219 -18.4375 45.38476562 C-18.80153323 37.5883872 -19.56297659 30.44850386 -23.96875 23.83984375 C-23.96875 23.17984375 -23.96875 22.51984375 -23.96875 21.83984375 C-25.0515625 21.40671875 -25.0515625 21.40671875 -26.15625 20.96484375 C-27.89864762 20.2678847 -29.63073731 19.54369153 -31.34375 18.77734375 C-40.93845069 15.35066493 -52.92700085 15.97913316 -62.34375 19.8046875 C-66.84750526 22.26353918 -68.93632636 24.66027686 -70.3984375 29.58203125 C-70.68074219 30.69964844 -70.68074219 30.69964844 -70.96875 31.83984375 C-71.62875 34.14984375 -72.28875 36.45984375 -72.96875 38.83984375 C-83.19875 38.83984375 -93.42875 38.83984375 -103.96875 38.83984375 C-106.78389981 33.20954413 -105.73991941 23.04790851 -104.28515625 16.99609375 C-103.34430067 14.7786416 -102.28687053 12.85409668 -100.96875 10.83984375 C-100.55625 10.15792969 -100.14375 9.47601563 -99.71875 8.7734375 C-92.32726825 -2.29278659 -79.75934699 -7.41179362 -67.21875 -10.41015625 C-45.4950465 -14.47756182 -17.78580061 -14.81106283 0 0 Z M-32.65014648 80.95678711 C-34.0508683 81.08532167 -35.45191001 81.21042495 -36.85327148 81.33178711 C-50.60564369 82.52515449 -63.47151677 83.68427893 -74.34375 92.83984375 C-78.76280628 98.27868224 -78.90019901 105.09613985 -78.96875 111.83984375 C-78.42092863 116.91480002 -77.34376843 121.90232225 -73.96875 125.83984375 C-69.53326038 129.02000612 -65.04027087 130.57319228 -59.578125 130.28125 C-42.23141393 127.34685127 -29.95162593 115.82271968 -17.96875 103.83984375 C-17.69066783 101.3160672 -17.69066783 101.3160672 -17.7734375 98.39453125 C-17.78310547 96.77998047 -17.78310547 96.77998047 -17.79296875 95.1328125 C-17.80972656 94.00488281 -17.82648438 92.87695312 -17.84375 91.71484375 C-17.85277344 90.57917969 -17.86179687 89.44351563 -17.87109375 88.2734375 C-17.89471902 85.46203076 -17.92765987 82.65104077 -17.96875 79.83984375 C-22.86616045 79.83984375 -27.77463086 80.50386422 -32.65014648 80.95678711 Z " fill="#2D9651" transform="translate(1810.96875,149.16015625)"/>
<path d="M0 0 C0.61230469 0.40734375 1.22460938 0.8146875 1.85546875 1.234375 C11.31158255 8.33167895 15.58251692 20.08041279 17.6401329 31.33916092 C19.02616973 41.58744703 18.49734205 52.118586 18.42578125 62.43359375 C18.41871247 65.16601946 18.41740669 67.89844098 18.41581726 70.63087463 C18.40941546 76.32180789 18.38832419 82.01252255 18.35668945 87.70336914 C18.3161046 95.01400581 18.29895093 102.32450195 18.28938007 109.63523769 C18.28109971 115.93613741 18.26388014 122.23700736 18.24434257 128.53788114 C18.24029277 129.88799745 18.23655334 131.23811473 18.2331202 132.58823276 C18.22187365 137.00866811 18.20174118 141.4289865 18.17700195 145.84936523 C18.17431305 146.97077408 18.17162415 148.09218292 18.16885376 149.24757385 C18.1581208 150.76736343 18.1581208 150.76736343 18.14717102 152.31785583 C18.14289754 153.20319724 18.13862406 154.08853865 18.13422108 155.00070858 C18 157 18 157 17 158 C12.60041753 158.24215865 8.19530526 158.22850329 3.78979492 158.24023438 C1.57497685 158.24994529 -0.63891541 158.2809579 -2.85351562 158.3125 C-4.2552028 158.3190293 -5.65689664 158.32428006 -7.05859375 158.328125 C-8.34048584 158.3374707 -9.62237793 158.34681641 -10.94311523 158.35644531 C-11.95188721 158.23881836 -12.96065918 158.12119141 -14 158 C-16.1250138 154.8124793 -16.25106026 154.02464369 -16.25828552 150.37191772 C-16.26511353 149.42158661 -16.27194153 148.47125549 -16.27897644 147.49212646 C-16.27642349 146.4510675 -16.27387054 145.41000854 -16.27124023 144.33740234 C-16.27646698 143.23951385 -16.28169373 142.14162537 -16.28707886 141.01046753 C-16.29733299 138.62218026 -16.30310171 136.23387055 -16.30496025 133.84556198 C-16.3086167 130.06218755 -16.32532569 126.27907696 -16.34571838 122.49575806 C-16.39419461 113.09360989 -16.42572415 103.69143192 -16.44702148 94.28918457 C-16.46502701 86.35462054 -16.4944973 78.42029333 -16.54106331 70.4858284 C-16.5526942 67.98130898 -16.55864349 65.47675635 -16.55874443 62.97220993 C-16.55893718 59.46093249 -16.57725695 55.95016311 -16.59936523 52.43896484 C-16.59478806 51.41005127 -16.59021088 50.3811377 -16.585495 49.32104492 C-16.65963177 41.88840785 -17.93711756 35.7131884 -21.5625 29.1875 C-27.61726866 23.75373325 -34.88873349 22.31038126 -42.85546875 22.6171875 C-58.02701879 24.46415881 -68.66085806 32.42007977 -80 42 C-80.86417542 42.48511551 -81.72835083 42.97023102 -82.61871338 43.470047 C-86.34060167 47.42429692 -85.69586948 51.38434835 -85.64355469 56.62768555 C-85.6568708 58.25012177 -85.6568708 58.25012177 -85.67045593 59.90533447 C-85.69417024 63.48277328 -85.68294031 67.05923267 -85.671875 70.63671875 C-85.68244851 73.11726452 -85.69535741 75.59780134 -85.71051025 78.07832336 C-85.74126844 83.94195272 -85.75062585 89.80529862 -85.74893594 95.66900235 C-85.74725876 105.55568734 -85.79166203 115.44222295 -85.83233643 125.32881165 C-85.85242892 130.24111353 -85.86168747 135.15325624 -85.86248779 140.06559753 C-85.86630642 142.29723108 -85.87015023 144.52886459 -85.87402344 146.76049805 C-85.87192368 147.78855057 -85.86982391 148.81660309 -85.86766052 149.87580872 C-85.87022354 150.80537384 -85.87278656 151.73493896 -85.87542725 152.69267273 C-85.8753857 153.50510783 -85.87534416 154.31754293 -85.87530136 155.15459728 C-86 157 -86 157 -87 158 C-89.36398468 158.1007812 -91.69811311 158.13973215 -94.0625 158.1328125 C-94.76898682 158.13376923 -95.47547363 158.13472595 -96.20336914 158.13571167 C-97.69970793 158.13639333 -99.19604967 158.13454005 -100.69238281 158.13037109 C-102.99030157 158.12502257 -105.28802486 158.13031651 -107.5859375 158.13671875 C-109.03645877 158.13605797 -110.48697991 158.1347768 -111.9375 158.1328125 C-112.9749939 158.13584885 -112.9749939 158.13584885 -114.03344727 158.13894653 C-118.88504776 158.11495224 -118.88504776 158.11495224 -120 157 C-120.10626816 155.28099882 -120.14242307 153.55763184 -120.15148926 151.83537292 C-120.15983292 150.71542938 -120.16817657 149.59548584 -120.17677307 148.44160461 C-120.18095749 147.20170273 -120.18514191 145.96180084 -120.18945312 144.68432617 C-120.20218487 142.69226761 -120.21491675 140.70020904 -120.2276535 138.70815051 C-120.24042713 136.55864013 -120.25073624 134.40913017 -120.26036072 132.2596035 C-120.28057081 127.77413091 -120.30823207 123.28872344 -120.33703613 118.80329895 C-120.39721782 109.26473004 -120.44888484 99.72612109 -120.5 90.1875 C-120.55514033 79.9275866 -120.61196583 69.66769327 -120.67754889 59.40784055 C-120.70570863 54.95962322 -120.7293745 50.51141245 -120.74947357 46.06315172 C-120.75971718 43.95193807 -120.77210473 41.8407496 -120.78541565 39.72955322 C-120.80153836 37.16945842 -120.81442901 34.60934005 -120.82322693 32.04920959 C-120.87067364 25.50419759 -121.15639018 19.04754715 -121.77494049 12.53070545 C-122.06340337 9.28705413 -122.13293058 6.06800148 -122.125 2.8125 C-122.12757812 1.72582031 -122.13015625 0.63914063 -122.1328125 -0.48046875 C-122 -3 -122 -3 -121 -4 C-116.8847102 -4.24166663 -112.76608735 -4.22849275 -108.64428711 -4.24023438 C-106.57429901 -4.24994465 -104.50530185 -4.28095712 -102.43554688 -4.3125 C-101.13810547 -4.31765625 -99.84066406 -4.3228125 -98.50390625 -4.328125 C-96.70675171 -4.34214355 -96.70675171 -4.34214355 -94.87329102 -4.35644531 C-93.92510498 -4.23881836 -92.97691895 -4.12119141 -92 -4 C-90.05917559 -1.08876338 -89.63927064 0.12493979 -89.1484375 3.44921875 C-89.01953125 4.29677734 -88.890625 5.14433594 -88.7578125 6.01757812 C-88.63148437 6.89865234 -88.50515625 7.77972656 -88.375 8.6875 C-88.17390625 10.02651367 -88.17390625 10.02651367 -87.96875 11.39257812 C-87.63910373 13.59414427 -87.31646086 15.79650647 -87 18 C-86.36835937 17.38253906 -85.73671875 16.76507813 -85.0859375 16.12890625 C-63.29232858 -4.50279556 -27.66642621 -19.29442149 0 0 Z " fill="#2D9651" transform="translate(1187,145)"/>
<path d="M0 0 C3.65325125 3.7584206 3.22229356 6.74795809 3.15429688 11.84179688 C3.0856543 13.57333008 3.0856543 13.57333008 3.015625 15.33984375 C2.99693359 16.50580078 2.97824219 17.67175781 2.95898438 18.87304688 C2.77401879 27.45644996 2.77401879 27.45644996 1.578125 28.65234375 C-3.65094044 28.37221524 -8.51492557 27.42085595 -13.57592773 26.14746094 C-25.11909548 23.24929724 -36.39800514 21.45505162 -47.2734375 27.71875 C-52.60625131 31.69865784 -54.40424862 37.33098663 -55.421875 43.65234375 C-55.67697739 46.75348885 -55.83474885 49.857035 -55.984375 52.96484375 C-56.02755859 53.80080078 -56.07074219 54.63675781 -56.11523438 55.49804688 C-56.22072807 57.5493131 -56.32174815 59.60080855 -56.421875 61.65234375 C-55.83749664 61.64790253 -55.25311829 61.6434613 -54.65103149 61.6388855 C-48.58443642 61.59473613 -42.51788677 61.56451241 -36.45117188 61.54248047 C-34.18520251 61.53240516 -31.91924619 61.51874457 -29.65332031 61.50146484 C-26.40165999 61.47728364 -23.15017113 61.46587612 -19.8984375 61.45703125 C-18.37181992 61.44154739 -18.37181992 61.44154739 -16.81436157 61.42575073 C-15.87353729 61.42559967 -14.93271301 61.42544861 -13.96337891 61.42529297 C-12.71761581 61.41863113 -12.71761581 61.41863113 -11.44668579 61.41183472 C-9.421875 61.65234375 -9.421875 61.65234375 -7.421875 63.65234375 C-7.16308594 66.14257813 -7.16308594 66.14257813 -7.15625 69.24609375 C-7.15238281 70.91478516 -7.15238281 70.91478516 -7.1484375 72.6171875 C-7.15617187 73.78378906 -7.16390625 74.95039063 -7.171875 76.15234375 C-7.16027344 77.90224609 -7.16027344 77.90224609 -7.1484375 79.6875 C-7.15101562 80.79996094 -7.15359375 81.91242188 -7.15625 83.05859375 C-7.15850586 84.08275391 -7.16076172 85.10691406 -7.16308594 86.16210938 C-7.421875 88.65234375 -7.421875 88.65234375 -9.421875 90.65234375 C-11.44668579 90.89285278 -11.44668579 90.89285278 -13.96337891 90.87939453 C-14.90420319 90.87924347 -15.84502747 90.87909241 -16.81436157 90.87893677 C-17.83210663 90.8686142 -18.84985168 90.85829163 -19.8984375 90.84765625 C-20.93882172 90.84482635 -21.97920593 90.84199646 -23.05111694 90.83908081 C-26.38315194 90.82786079 -29.71492086 90.8027529 -33.046875 90.77734375 C-35.30207946 90.76731631 -37.55728812 90.75819005 -39.8125 90.75 C-45.34904954 90.72791553 -50.88544327 90.69442014 -56.421875 90.65234375 C-56.42095321 91.33171462 -56.42003141 92.01108549 -56.41908169 92.71104336 C-56.39702688 109.21820006 -56.38046365 125.72535212 -56.37006283 142.2325201 C-56.36489978 150.21515875 -56.35785691 158.19778758 -56.34643555 166.18041992 C-56.33648898 173.13558174 -56.33002164 180.09073644 -56.32778651 187.04590517 C-56.32647935 190.73086302 -56.32339321 194.41580053 -56.31614494 198.10075188 C-56.3081316 202.20772083 -56.30788384 206.31465412 -56.30834961 210.42163086 C-56.30475433 211.65233307 -56.30115906 212.88303528 -56.29745483 214.15103149 C-56.2988295 215.26307449 -56.30020416 216.37511749 -56.30162048 217.52085876 C-56.30069869 218.49335036 -56.2997769 219.46584196 -56.29882717 220.467803 C-56.421875 222.65234375 -56.421875 222.65234375 -57.421875 223.65234375 C-61.82145747 223.8945024 -66.22656974 223.88084704 -70.63208008 223.89257812 C-72.84689815 223.90228904 -75.06079041 223.93330165 -77.27539062 223.96484375 C-78.6770778 223.97137305 -80.07877164 223.97662381 -81.48046875 223.98046875 C-82.76236084 223.98981445 -84.04425293 223.99916016 -85.36499023 224.00878906 C-86.37376221 223.89116211 -87.38253418 223.77353516 -88.421875 223.65234375 C-90.65226147 220.30676405 -90.66990983 219.25840204 -90.66238403 215.35627747 C-90.66513336 214.25831345 -90.66788269 213.16034943 -90.67071533 212.02911377 C-90.66352478 210.82430359 -90.65633423 209.61949341 -90.64892578 208.37817383 C-90.64921783 207.10977158 -90.64950989 205.84136932 -90.64981079 204.53453064 C-90.65038523 201.05542388 -90.63861622 197.57645468 -90.62466288 194.09737992 C-90.61217071 190.46187424 -90.61098621 186.8263655 -90.60861206 183.19084167 C-90.60239283 176.30604708 -90.58597604 169.42131592 -90.56591308 162.53654927 C-90.54356784 154.69866919 -90.53256412 146.8607861 -90.52252221 139.0228821 C-90.50161019 122.89933218 -90.46642563 106.77584605 -90.421875 90.65234375 C-91.19901855 90.66281738 -91.97616211 90.67329102 -92.77685547 90.68408203 C-96.283496 90.72554657 -99.79008506 90.75163953 -103.296875 90.77734375 C-104.52019531 90.79410156 -105.74351563 90.81085938 -107.00390625 90.828125 C-108.75380859 90.83779297 -108.75380859 90.83779297 -110.5390625 90.84765625 C-111.61784668 90.85812988 -112.69663086 90.86860352 -113.80810547 90.87939453 C-116.421875 90.65234375 -116.421875 90.65234375 -118.421875 88.65234375 C-118.64892578 86.03857422 -118.64892578 86.03857422 -118.6171875 82.76953125 C-118.61074219 81.60292969 -118.60429688 80.43632812 -118.59765625 79.234375 C-118.58089844 78.01105469 -118.56414062 76.78773438 -118.546875 75.52734375 C-118.53785156 74.29628906 -118.52882813 73.06523437 -118.51953125 71.796875 C-118.49590048 68.7485056 -118.46295554 65.70051993 -118.421875 62.65234375 C-115.70786206 61.29533728 -113.57341184 61.53995765 -110.5390625 61.5546875 C-108.78916016 61.55952148 -108.78916016 61.55952148 -107.00390625 61.56445312 C-105.78058594 61.57283203 -104.55726562 61.58121094 -103.296875 61.58984375 C-102.06582031 61.59435547 -100.83476563 61.59886719 -99.56640625 61.60351562 C-96.51818108 61.61533045 -93.47005186 61.63180347 -90.421875 61.65234375 C-90.44507813 60.35941406 -90.46828125 59.06648438 -90.4921875 57.734375 C-90.71476511 40.36997424 -90.15491621 23.63782071 -78.41796875 9.6796875 C-58.95074114 -10.09231079 -24.31688399 -9.57685499 0 0 Z " fill="#2D9651" transform="translate(1973.421875,79.34765625)"/>
<path d="M0 0 C1.14947585 0.00092179 2.2989517 0.00184359 3.48326015 0.00279331 C4.79724285 0.00141865 6.11122555 0.00004398 7.4650259 -0.00137234 C8.93484424 0.00216728 10.40466235 0.0058021 11.87448025 0.00952244 C13.411554 0.0098043 14.94862789 0.0096466 16.48570156 0.00907993 C20.67147095 0.00879192 24.85721194 0.01468931 29.04297471 0.02165389 C33.41254392 0.02788674 37.7821137 0.02849117 42.15168667 0.0296793 C50.43191283 0.03279282 58.71212586 0.04100648 66.99234623 0.05102879 C76.41661395 0.06218929 85.84088228 0.06770021 95.26515496 0.07272422 C114.65699155 0.08318908 134.0488159 0.10078892 153.44064236 0.12304783 C154.46692482 3.20189522 154.56970751 5.33568412 154.57345486 8.56054783 C154.57474392 9.6201572 154.57603298 10.67976658 154.57736111 11.77148533 C154.57349392 12.87750095 154.56962673 13.98351658 154.56564236 15.12304783 C154.56950954 16.22906345 154.57337673 17.33507908 154.57736111 18.47461033 C154.57542751 20.06402439 154.57542751 20.06402439 154.57345486 21.68554783 C154.57232693 22.65621189 154.571199 23.62687595 154.57003689 24.62695408 C154.44064236 27.12304783 154.44064236 27.12304783 153.44064236 30.12304783 C133.31064236 30.12304783 113.18064236 30.12304783 92.44064236 30.12304783 C92.44587917 35.68648045 92.45111599 41.24991306 92.4565115 46.98193455 C92.47304619 65.3183832 92.48416393 83.65483213 92.49245453 101.99128628 C92.49761681 113.11382393 92.50465823 124.23635454 92.51608181 135.35888767 C92.5260307 145.05019419 92.53249628 154.74149561 92.53473085 164.43280709 C92.53603761 169.56705712 92.53912127 174.70129255 92.54637241 179.83553791 C92.55313585 184.66335303 92.55525865 189.49114746 92.55375004 194.31896687 C92.55402622 196.09516608 92.55602943 197.87136595 92.55984783 199.64756107 C92.56479011 202.06412894 92.56363864 204.48061771 92.56089687 206.89718723 C92.56380971 207.60729604 92.56672256 208.31740484 92.56972367 209.04903209 C92.55476357 213.89480541 92.55476357 213.89480541 91.44064236 216.12304783 C86.90166531 216.14770175 82.36272693 216.16588571 77.823699 216.17797947 C76.2784447 216.18301923 74.73319519 216.18985102 73.18795681 216.19848728 C70.97139207 216.21056859 68.75489017 216.21627956 66.53829861 216.22070408 C65.49609913 216.22844601 65.49609913 216.22844601 64.43284512 216.23634434 C62.76834906 216.2365406 61.10398737 216.18493912 59.44064236 216.12304783 C57.76351045 214.44591592 58.31845728 212.39089017 58.31156105 210.15194029 C58.31593031 209.0765714 58.31593031 209.0765714 58.32038784 207.97947788 C58.31953342 207.22316627 58.31867899 206.46685466 58.31779867 205.68762451 C58.3161416 203.13409301 58.32166894 200.5806261 58.32711697 198.02710056 C58.32739882 196.20431616 58.32724115 194.38153163 58.32667446 192.55874729 C58.3263864 187.59407895 58.33228456 182.62943455 58.33924842 177.6647718 C58.34548047 172.48241308 58.34608564 167.30005388 58.34727383 162.11769199 C58.35038758 152.29687224 58.35860156 142.47606357 58.36862332 132.6552487 C58.37978309 121.47768877 58.38529456 110.30012831 58.39031875 99.1225642 C58.40078414 76.12271926 58.41838443 53.12288416 58.44064236 30.12304783 C57.2976543 30.12637875 57.2976543 30.12637875 56.13157558 30.12977695 C48.96512524 30.1497794 41.79868834 30.16502171 34.63221741 30.17486 C30.94749738 30.18008791 27.26280033 30.18718388 23.57809353 30.19848728 C20.02493405 30.20931945 16.47179673 30.21532536 12.91862202 30.21792507 C11.56018569 30.21977873 10.20175064 30.22339821 8.84332371 30.22877789 C6.94682012 30.23599258 5.05029443 30.23645592 3.15377712 30.23657322 C1.53162037 30.23990414 1.53162037 30.23990414 -0.12330723 30.24330235 C-2.55935764 30.12304783 -2.55935764 30.12304783 -3.55935764 29.12304783 C-3.65929296 27.06249473 -3.6901667 24.99852193 -3.69217014 22.93554783 C-3.69345921 21.68000095 -3.69474827 20.42445408 -3.69607639 19.13086033 C-3.69398167 18.47376072 -3.69188694 17.81666111 -3.68972874 17.13964939 C-3.68437998 15.13143448 -3.68967455 13.12344324 -3.69607639 11.11523533 C-3.69478733 9.85968845 -3.69349827 8.60414158 -3.69217014 7.31054783 C-3.69047825 5.56837986 -3.69047825 5.56837986 -3.68875217 3.79101658 C-3.51794684 0.26920403 -3.51133586 0.16881668 0 0 Z " fill="#2D9652" transform="translate(490.55935764312744,86.87695217132568)"/>
<path d="M0 0 C1.11246094 -0.00257812 2.22492188 -0.00515625 3.37109375 -0.0078125 C4.53769531 -0.00007813 5.70429687 0.00765625 6.90625 0.015625 C8.07285156 0.00789063 9.23945312 0.00015625 10.44140625 -0.0078125 C11.55386719 -0.00523438 12.66632813 -0.00265625 13.8125 0 C14.83666016 0.00225586 15.86082031 0.00451172 16.91601562 0.00683594 C19.40625 0.265625 19.40625 0.265625 21.40625 2.265625 C21.58178419 5.35087439 21.63747797 8.34526702 21.6015625 11.4296875 C21.5987326 12.33689545 21.59590271 13.24410339 21.59298706 14.17880249 C21.58177153 17.08287623 21.55666463 19.98664412 21.53125 22.890625 C21.52122197 24.85676639 21.51209581 26.8229126 21.50390625 28.7890625 C21.48182772 33.61470159 21.44728865 38.4401114 21.40625 43.265625 C22.01568451 43.26118378 22.62511902 43.25674255 23.25302124 43.25216675 C29.57913882 43.20802093 35.90521285 43.17779513 42.23144531 43.15576172 C44.59441911 43.14568576 46.95738039 43.13202471 49.3203125 43.11474609 C52.71096888 43.09056776 56.10146084 43.07915801 59.4921875 43.0703125 C60.55368011 43.05998993 61.61517273 43.04966736 62.70883179 43.03903198 C64.18013046 43.03880539 64.18013046 43.03880539 65.68115234 43.03857422 C66.54719086 43.034133 67.41322937 43.02969177 68.30551147 43.02511597 C70.40625 43.265625 70.40625 43.265625 72.40625 45.265625 C72.66503906 47.75585938 72.66503906 47.75585938 72.671875 50.859375 C72.67574219 52.52806641 72.67574219 52.52806641 72.6796875 54.23046875 C72.67195313 55.39707031 72.66421875 56.56367188 72.65625 57.765625 C72.66785156 59.51552734 72.66785156 59.51552734 72.6796875 61.30078125 C72.67710938 62.41324219 72.67453125 63.52570313 72.671875 64.671875 C72.66961914 65.69603516 72.66736328 66.72019531 72.66503906 67.77539062 C72.40625 70.265625 72.40625 70.265625 70.40625 72.265625 C68.30551147 72.50613403 68.30551147 72.50613403 65.68115234 72.49267578 C64.20985367 72.49244919 64.20985367 72.49244919 62.70883179 72.49221802 C61.64733917 72.48189545 60.58584656 72.47157288 59.4921875 72.4609375 C58.40741119 72.4581076 57.32263489 72.45527771 56.20498657 72.45236206 C52.73029687 72.44114078 49.25586218 72.41603262 45.78125 72.390625 C43.42969121 72.38059772 41.0781284 72.37147143 38.7265625 72.36328125 C32.95303756 72.34119511 27.17966199 72.30769845 21.40625 72.265625 C21.46761624 83.69723349 21.5448338 95.1286166 21.64196491 106.55998039 C21.68658179 111.86874735 21.72585694 117.1774391 21.75268555 122.48632812 C21.77880525 127.61526061 21.81926861 132.74390232 21.86943626 137.87265396 C21.88604651 139.82369478 21.897597 141.77478583 21.90386391 143.7258873 C21.8064884 159.51114268 21.8064884 159.51114268 27.03125 174.203125 C32.46124475 178.91864676 39.22163408 179.81110252 46.234375 179.6328125 C51.51910731 179.02103314 56.58596096 177.64700643 61.70703125 176.23828125 C64.9478097 175.38616527 68.07982022 174.6631862 71.40625 174.265625 C72.40625 175.265625 72.40625 175.265625 72.51977539 177.85766602 C72.51192017 179.54653931 72.51192017 179.54653931 72.50390625 181.26953125 C72.49907227 183.09194336 72.49907227 183.09194336 72.49414062 184.95117188 C72.48157227 186.87026367 72.48157227 186.87026367 72.46875 188.828125 C72.46423828 190.11138672 72.45972656 191.39464844 72.45507812 192.71679688 C72.44324545 195.89978522 72.42676068 199.08268262 72.40625 202.265625 C55.12013005 210.36651834 33.62317064 212.48899729 15.0625 207.23828125 C5.61558246 203.77904233 -1.56411132 198.49167264 -6.34375 189.515625 C-11.34646792 178.68737371 -12.75772253 167.61879539 -12.70727539 155.8203125 C-12.70742142 154.91206223 -12.70756744 154.00381195 -12.7077179 153.06803894 C-12.70702612 150.09220925 -12.69926838 147.11644364 -12.69140625 144.140625 C-12.68953946 142.06697626 -12.68811679 139.99332708 -12.68711853 137.91967773 C-12.68331393 132.48145311 -12.67350133 127.04325551 -12.66241455 121.6050415 C-12.65215608 116.04789597 -12.64761143 110.49074604 -12.64257812 104.93359375 C-12.63187711 94.04425901 -12.61482555 83.15494426 -12.59375 72.265625 C-13.40642334 72.27086182 -14.21909668 72.27609863 -15.05639648 72.28149414 C-18.71467322 72.30219494 -22.37293767 72.31526303 -26.03125 72.328125 C-27.31064453 72.33650391 -28.59003906 72.34488281 -29.90820312 72.35351562 C-31.12314453 72.35673828 -32.33808594 72.35996094 -33.58984375 72.36328125 C-34.71575928 72.36851807 -35.8416748 72.37375488 -37.00170898 72.37915039 C-39.59375 72.265625 -39.59375 72.265625 -40.59375 71.265625 C-40.69358058 69.27805472 -40.72455753 67.2869498 -40.7265625 65.296875 C-40.72785156 64.08644531 -40.72914062 62.87601563 -40.73046875 61.62890625 C-40.72660156 60.35402344 -40.72273438 59.07914063 -40.71875 57.765625 C-40.72261719 56.49074219 -40.72648437 55.21585938 -40.73046875 53.90234375 C-40.72917969 52.69191406 -40.72789063 51.48148438 -40.7265625 50.234375 C-40.72543457 49.11482422 -40.72430664 47.99527344 -40.72314453 46.84179688 C-40.59375 44.265625 -40.59375 44.265625 -39.59375 43.265625 C-37.52112924 43.17795388 -35.44554706 43.15866627 -33.37109375 43.16796875 C-32.11103516 43.17119141 -30.85097656 43.17441406 -29.55273438 43.17773438 C-28.21223891 43.18609097 -26.87174412 43.19455593 -25.53125 43.203125 C-24.18685058 43.2081384 -22.8424494 43.21270158 -21.49804688 43.21679688 C-18.19657059 43.22863012 -14.89518197 43.24511529 -11.59375 43.265625 C-11.5436377 42.62761963 -11.49352539 41.98961426 -11.44189453 41.33227539 C-9.7412817 19.8586642 -9.7412817 19.8586642 -8.59375 9.390625 C-8.5230127 8.69074463 -8.45227539 7.99086426 -8.37939453 7.26977539 C-7.65662561 1.00604166 -6.14457478 0.01353431 0 0 Z " fill="#2D9651" transform="translate(1276.59375,97.734375)"/>
<path d="M0 0 C4.53897705 -0.02465392 9.07791543 -0.04283789 13.61694336 -0.05493164 C15.16219766 -0.0599714 16.70744716 -0.0668032 18.25268555 -0.07543945 C20.46925029 -0.08752076 22.68575218 -0.09323173 24.90234375 -0.09765625 C25.5971434 -0.10281754 26.29194305 -0.10797882 27.00779724 -0.11329651 C28.6722933 -0.11349277 30.33665499 -0.06189129 32 0 C33.67713191 1.67713191 33.12218508 3.73215766 33.12908131 5.97110754 C33.12471205 7.04647643 33.12471205 7.04647643 33.12025452 8.14356995 C33.12110894 8.89988156 33.12196337 9.65619317 33.12284368 10.43542331 C33.12450076 12.98895482 33.11897342 15.54242173 33.11352539 18.09594727 C33.11324354 19.91873167 33.11340121 21.7415162 33.1139679 23.56430054 C33.11425596 28.52896888 33.10835779 33.49361328 33.10139394 38.45827603 C33.09516188 43.64063475 33.09455672 48.82299395 33.09336853 54.00535583 C33.09025478 63.82617558 33.08204079 73.64698426 33.07201904 83.46779913 C33.06085927 94.64535906 33.0553478 105.82291952 33.05032361 117.00048363 C33.03985822 140.00032857 33.02225792 163.00016367 33 186 C34.1503624 185.99777939 35.30072479 185.99555878 36.48594666 185.99327087 C47.30200059 185.97304078 58.1180507 185.9580285 68.93411922 185.94818783 C74.49539411 185.94295866 80.05665379 185.93586042 85.61791992 185.92456055 C90.98007419 185.91373285 96.34221378 185.90772342 101.70437813 185.90512276 C103.75500278 185.90326829 105.8056266 185.89964728 107.85624504 185.89426994 C110.71790203 185.88706107 113.57949757 185.88600899 116.44116211 185.88647461 C117.29783478 185.88287933 118.15450745 185.87928406 119.03713989 185.87557983 C124.88594784 185.88594784 124.88594784 185.88594784 126 187 C126.09985642 188.97583828 126.13080794 190.95523478 126.1328125 192.93359375 C126.13410156 194.13951172 126.13539062 195.34542969 126.13671875 196.58789062 C126.13285156 197.85826172 126.12898438 199.12863281 126.125 200.4375 C126.12886719 201.70400391 126.13273437 202.97050781 126.13671875 204.27539062 C126.13542969 205.48259766 126.13414063 206.68980469 126.1328125 207.93359375 C126.13168457 209.04790771 126.13055664 210.16222168 126.12939453 211.31030273 C126 214 126 214 125 216 C83.75 216 42.5 216 0 216 C-1.6106844 212.77863119 -1.13663711 209.26317363 -1.12698364 205.72460938 C-1.12854363 204.85859856 -1.13010362 203.99258774 -1.13171089 203.10033417 C-1.13571819 200.18145577 -1.13253227 197.26262884 -1.12939453 194.34375 C-1.13074869 192.25805633 -1.13252871 190.1723629 -1.13470459 188.08666992 C-1.13927717 182.40914325 -1.13749007 176.73163467 -1.1343255 171.05410767 C-1.13180101 165.12396189 -1.13413969 159.19381771 -1.13571167 153.26367188 C-1.1375331 143.30338257 -1.13512774 133.34310068 -1.13037109 123.3828125 C-1.12492853 111.8527848 -1.1266912 100.32277477 -1.1321975 88.7927475 C-1.13672938 78.90910439 -1.13737881 69.02546662 -1.13475883 59.14182281 C-1.13319647 53.231834 -1.13300118 47.32185352 -1.13629532 41.41186523 C-1.13917511 35.85681324 -1.13719633 30.30178413 -1.13140106 24.74673462 C-1.13007405 22.70285073 -1.13046659 20.65896493 -1.13266373 18.61508179 C-1.13537751 15.83515835 -1.13199126 13.05530926 -1.12698364 10.27539062 C-1.12921436 9.45769951 -1.13144509 8.64000839 -1.13374341 7.79753876 C-1.11415003 2.22830007 -1.11415003 2.22830007 0 0 Z " fill="#2D9652" transform="translate(1385,87)"/>
<path d="M0 0 C1.34888732 0.00015905 2.69778075 0.00584927 4.04663086 0.01586914 C5.10991859 0.01799156 5.10991859 0.01799156 6.19468689 0.02015686 C8.46699173 0.02577096 10.73919936 0.03832576 13.01147461 0.05102539 C14.54858257 0.05603858 16.08569206 0.0606018 17.62280273 0.06469727 C21.39823103 0.07574497 25.17358632 0.09301898 28.94897461 0.11352539 C30.24810925 4.01092932 30.09016412 7.7061823 30.08268738 11.76818848 C30.08495293 12.66293302 30.08721849 13.55767756 30.0895527 14.47953558 C30.09590317 17.48970662 30.09506267 20.49983275 30.09423828 23.51000977 C30.09722908 25.66319334 30.10063142 27.81637639 30.10441589 29.96955872 C30.11326715 35.82683658 30.11559445 41.68409984 30.11623168 47.54138374 C30.11717975 52.42492309 30.12085678 57.30845902 30.12440377 62.19199705 C30.13255225 73.70864758 30.13498761 85.22529028 30.13427734 96.74194336 C30.13367611 108.63836893 30.14423617 120.53474921 30.16002101 132.43116331 C30.17307638 142.6324623 30.1784621 152.83374645 30.17782193 163.03505373 C30.1775664 169.13342663 30.1804481 175.23175929 30.19099998 181.3301239 C30.20064758 187.06249682 30.2007832 192.79479074 30.19348335 198.52716637 C30.19243341 200.63513491 30.19482449 202.74310829 30.20084381 204.8510685 C30.20850891 207.72042742 30.20395555 210.58950976 30.19621277 213.4588623 C30.20135633 214.3001951 30.20649989 215.14152789 30.21179932 216.00835562 C30.18847071 219.89909892 30.15757071 221.80063124 27.94897461 225.11352539 C24.89208984 225.4699707 24.89208984 225.4699707 21.00756836 225.44165039 C20.32469254 225.43977722 19.64181671 225.43790405 18.93824768 225.43597412 C17.49491493 225.42925083 16.05160048 225.41533062 14.60839844 225.39477539 C12.39167476 225.36359853 10.17566148 225.35380365 7.95874023 225.34790039 C-2.88766608 225.2768847 -2.88766608 225.2768847 -4.05102539 224.11352539 C-4.15118539 221.24586799 -4.18541347 218.40221962 -4.17800903 215.53405762 C-4.17956902 214.62327658 -4.18112901 213.71249555 -4.18273628 212.77411509 C-4.18675041 209.69778266 -4.18355504 206.62149888 -4.18041992 203.54516602 C-4.18177378 201.34962434 -4.18355362 199.15408289 -4.18572998 196.95854187 C-4.19030616 190.9773141 -4.188514 184.9961035 -4.18535089 179.01487541 C-4.18282824 172.77061795 -4.18516457 166.52636201 -4.18673706 160.28210449 C-4.18867591 149.12097258 -4.18555813 137.959847 -4.18047772 126.7987166 C-4.17600968 116.66911122 -4.17678561 106.53951729 -4.18139648 96.40991211 C-4.18674219 84.66037081 -4.18874312 72.9108351 -4.18578422 61.16129255 C-4.18422101 54.93665256 -4.18402888 48.71202047 -4.18732071 42.48738098 C-4.19019828 36.63686648 -4.18822585 30.78637373 -4.18242645 24.93586159 C-4.18109824 22.78190459 -4.181494 20.62794578 -4.18368912 18.47398949 C-4.18639822 15.54696555 -4.18302245 12.62001251 -4.17800903 9.69299316 C-4.18023975 8.82890666 -4.18247048 7.96482015 -4.1847688 7.0745492 C-4.16158004 0.15484794 -4.16158004 0.15484794 0 0 Z " fill="#2D9651" transform="translate(820.051025390625,77.886474609375)"/>
<path d="M0 0 C0.66 0.33 1.32 0.66 2 1 C-2.29 5.29 -6.58 9.58 -11 14 C-11 9.40845608 -8.09282279 7.18698368 -5 4 C-3.3719908 2.61973133 -1.71956118 1.26438322 0 0 Z " fill="#208141" transform="translate(1554,148)"/>
<path d="M0 0 C0.66 0.33 1.32 0.66 2 1 C-1.96 4.96 -5.92 8.92 -10 13 C-10 8.41771462 -7.08388033 6.1816619 -4 3 C-1.625 1.0625 -1.625 1.0625 0 0 Z " fill="#208348" transform="translate(1902,83)"/>
<path d="M0 0 C0.66 0.33 1.32 0.66 2 1 C-1.63 4.63 -5.26 8.26 -9 12 C-9 8.00102358 -7.64683965 6.93298448 -5 4 C-3.36643049 2.62631655 -1.7074998 1.28062485 0 0 Z " fill="#218546" transform="translate(1721,148)"/>
<path d="M0 0 C0.66 0.33 1.32 0.66 2 1 C-0.97 3.97 -3.94 6.94 -7 10 C-7.66 9.67 -8.32 9.34 -9 9 C-6.21000549 5.51250686 -3.74764169 2.49842779 0 0 Z " fill="#1F8047" transform="translate(665,148)"/>
</svg>
